<?xml version="1.0" encoding="utf-8"?>
<!-- Generator: Adobe Illustrator 21.0.0, SVG Export Plug-In . SVG Version: 6.00 Build 0)  -->
<svg version="1.1" id="Layer_1" xmlns="http://www.w3.org/2000/svg" xmlns:xlink="http://www.w3.org/1999/xlink" x="0px" y="0px"
	 viewBox="0 0 461 460" style="enable-background:new 0 0 461 460;" xml:space="preserve">
<style type="text/css">
	.st0{fill:#262626;}
	.st1{fill:#202020;}
</style>
<g>
	<g>
		<path class="st0" d="M244.6,271.1c-11.7,4.2-34.8,11.1-62.1,11.1c-30.6,0-55.8-7.8-75.6-26.7c-17.4-16.8-28.2-43.8-28.2-75.3
			C79,119.9,120.4,75.8,188.2,75.8c23.4,0,41.7,5.1,50.4,9.3l-6.3,21.3c-10.8-4.8-24.3-8.7-44.7-8.7c-49.2,0-81.3,30.6-81.3,81.3
			c0,51.3,30.9,81.6,78,81.6c17.1,0,28.8-2.4,34.8-5.4v-60.3H178v-21h66.6V271.1z"/>
		<g>
			<g>
				<g>
					<g>
						<path class="st1" d="M244.7,269.8c0,1.4,0,1.1,0,1.3C244.7,268.4,244.7,269.9,244.7,269.8z"/>
						<polygon class="st1" points="245,243.1 245,243.5 245,239.6 						"/>
						<path class="st1" d="M245.3,218.1c-0.3,2.4,0,9.1-0.2,13.5l-0.1,0.7l0.2,2C245.2,228.9,245.1,221.9,245.3,218.1z"/>
						<path class="st1" d="M246.2,204.7c-0.2,0.8-0.1-2.9-0.1,3.1c0-0.3,0-0.4,0-0.6C246.2,206.7,246.2,206,246.2,204.7z"/>
						<path class="st1" d="M246.2,207.3C246.1,209.9,246.3,205.5,246.2,207.3L246.2,207.3z"/>
						<path class="st1" d="M246.3,195.1l0.1,3.5c0.1-0.7,0.2-3.8,0.2-2.7C246.7,192.4,246.5,193.1,246.3,195.1z"/>
						<path class="st1" d="M246.1,191.8l0,1.8C246.2,193.3,246.2,192.8,246.1,191.8z"/>
						<path class="st1" d="M246.2,197.4l-0.1-3.8c-0.1,0.5-0.2,0.6,0,1.8C246,195.1,246.1,195.8,246.2,197.4z"/>
						<path class="st1" d="M246.1,199.6c-0.1,1.9-0.2,4.5-0.3,1C245.7,207.2,246,206.2,246.1,199.6z"/>
						<path class="st1" d="M245,216.8l-0.1,2.6l0.1,2.3C244.9,220.5,245.1,216.6,245,216.8z"/>
						<path class="st1" d="M246.2,171.5C246.1,171.6,246.1,171.6,246.2,171.5c0.2,0.1,0.3,0.1,0.4,0.2c0.1,0,0.1,0,0.2,0
							c0,0.1,0,0.2,0,0.2c-0.1,0.7-0.1,1.4-0.2,1.7c0.1,0.7,0.1,1.4,0.1,2.1l0,1.7c0-0.4,0.1-2.4,0.1-3.8c0-0.7,0-1.4,0-1.9
							c0-0.1,0-0.1,0-0.2c0-0.1-0.1,0-0.1,0c-0.1,0-0.2,0-0.2,0C246.3,171.6,246.2,171.5,246.2,171.5z"/>
						<path class="st1" d="M246.5,173.7l-0.1-1.5l0-0.1c0,0-0.1,0-0.1,0l-0.2,0l-0.4,0l-0.8,0l-3.1,0.1c1.4,0,2.4,0,3.3,0
							c0.4,0,0.8,0,1.1,0c0.1,0,0.1,0,0.1,0.1l0,0.1c0,0.1,0,0.1,0,0.2c0,0.1,0,0.2,0,0.4C246.4,173.7,246.5,173.9,246.5,173.7z"/>
						<polygon class="st1" points="245.6,191.2 245.8,197.5 245.6,190 						"/>
						<polygon class="st1" points="229.6,171.2 231.8,170.9 227.9,171.3 						"/>
						<path class="st1" d="M219.9,171c1.6-0.2-2.2-0.5-0.5-0.6c-2.6,0-4.9,0.2-6.9,0.3C214.6,170.7,216.9,170.7,219.9,171z"/>
						<path class="st1" d="M209.1,171c1.1,0,2.2-0.1,3.4-0.2C211.3,170.8,210.2,170.8,209.1,171z"/>
						<path class="st1" d="M235.3,171.9c-0.3-0.1-0.9-0.3-3-0.4l1.5,0.4C234.2,171.9,234.8,171.9,235.3,171.9z"/>
						<path class="st1" d="M233.8,171.9L233.8,171.9c-1.7,0-2.8-0.1-3.3-0.1C230.9,171.8,231.9,171.9,233.8,171.9z"/>
						<path class="st1" d="M235.7,171.9c-0.1,0-0.2,0-0.4,0C235.4,172,235.5,172,235.7,171.9z"/>
						<path class="st1" d="M246,181.2c-0.1-2.3-0.3-6.9-0.6-2.4C245.6,180.4,245.8,177.8,246,181.2z"/>
						<path class="st1" d="M237.6,172.4l4.1,0.1c-0.1-0.1-0.8-0.2,0.3-0.3L237.6,172.4z"/>
						<polygon class="st1" points="235.6,172.5 237.6,172.4 236,172.3 						"/>
						<path class="st1" d="M216,171.5c-1.8,0.1-3.7,0.1-5.9,0.1c2.3,0.1,4.7,0.2,7,0.2C217.5,171.7,218.5,171.5,216,171.5z"/>
						<path class="st1" d="M224.7,171.7c-0.1,0-0.3,0-0.4,0C224.5,171.8,224.7,171.8,224.7,171.7z"/>
						<path class="st1" d="M188.8,171.5c0.1,0,0.2,0,0.3,0.1c0,0,0,0,0.1-0.1L188.8,171.5z"/>
						<path class="st1" d="M217.6,171.9c1.8,0.1,2.8,0,3.8-0.1c-1.3,0-2.7,0-4.2,0C217.1,171.9,217,171.9,217.6,171.9z"/>
						<path class="st1" d="M203.1,171.1c0.9,0.1,1.9,0.2,3,0.3C205.2,171.2,203.4,171,203.1,171.1z"/>
						<path class="st1" d="M223.7,171.6c0.1,0,0.2,0,0.3,0C223.4,171.5,223.5,171.6,223.7,171.6z"/>
						<path class="st1" d="M223.7,171.6c-0.9,0-1.6,0.1-2.3,0.2c1.1,0,2.1,0,2.9-0.1C224.1,171.7,223.9,171.7,223.7,171.6z"/>
						<path class="st1" d="M182.3,174.3c0.3-0.4,4.9-0.8,8.9-0.3c3.9-0.3,1.4-1.6-2.1-2.3c-0.1,0.2-0.1,0.3-4.1,0.6
							c1.4,0.2,8.9,0.5,5.5,0.9c-5.3,0.2-4.4-0.1-7-0.3c0.6,0.1,0.4,0.2-0.1,0.3c-0.5,0.1-1.3,0.2-2.4,0.3c-1,0.1-2,0.2-2.6,0.3
							c-0.1,0-0.3,0.1-0.3,0.1c0,0-0.1,0-0.1,0.1c0,0.1,0,0.1,0.1,0.2c0.1,0.2,0.2,0.3,0.3,0.2c0,0,0-0.1,0-0.1l0.1,0l0.3,0l0.5,0
							l1.1-0.1l2.3-0.1C182.7,174,181,174.2,182.3,174.3z"/>
						<path class="st1" d="M196.8,171.6l1.7,0c-1.9-0.1-3.2-0.2-5.7-0.5c-2.8,0.2-3.3,0.4-3.5,0.5l8.2,0L196.8,171.6z"/>
						<path class="st1" d="M205.9,171.6c-1.3,0.4-5.3,0.6-2.8,1.1c4.9,0,3.4-0.3,6.3-0.5C201.5,172.2,211.6,172,205.9,171.6
							c1.6,0,3,0,4.3,0c-1.4-0.1-2.8-0.2-4.1-0.3c0.1,0,0.1,0,0.2,0l0,0l0,0c0.3,0.1,0.4,0.1,0.1,0.1c0,0-0.1,0-0.2,0
							C206.2,171.5,206,171.6,205.9,171.6c-2.3-0.1-0.4-0.1,0.4-0.2c0,0,0.1,0,0.1-0.1c0,0,0,0,0,0c-2.6,0-5.2,0.1-7.9,0.2
							C200.1,171.6,202.2,171.6,205.9,171.6z"/>
						<path class="st1" d="M244.7,174.5c0-0.3,0-0.3,0.1-0.3c0-0.2,0-0.4-0.1-0.4C244.8,173.8,244.7,174,244.7,174.5z"/>
						<path class="st1" d="M242.1,173.6c0.3,0,0.6-0.1,1.1-0.1c0.2,0,0.5,0,0.9,0c0.2,0,0.4,0,0.6,0c0.1,0,0.2,0,0.3,0
							c0,0.1,0,0.2,0,0.4c-0.1,1.9-0.1,0.1-0.2,0.3c0,0.6,0.1,1.6,0.2,2c0.1,0.4,0.1,0.3,0.2-1.9l-0.1-0.6l0-0.2l0-0.1l0,0l0,0
							l-0.3,0c-0.2,0-0.5,0-0.7,0c-0.5,0-1-0.1-1.5-0.1c-0.2,0-0.5,0-0.7,0c-0.2,0-0.4,0-0.6,0c-0.4,0-0.7-0.1-1.1-0.1
							c-1.3-0.1-2.2-0.3-1.9-0.3C239.2,173.1,239.9,173.3,242.1,173.6z"/>
						<path class="st1" d="M223.7,172.8l-6.5,0.1l3.3,0.4l-0.2-0.2C224.1,173.2,223.3,172.9,223.7,172.8z"/>
						<polygon class="st1" points="188,171.3 188.9,170.8 185.1,171.5 						"/>
						<path class="st1" d="M177.9,171.4c0.1-0.1,0.2-0.3,0.3-0.4l-1.9,0.1l-0.9,0.1c-0.1,0-0.2,0-0.2,0.1l0,0.3l0,0.5l0-0.4l0-0.2
							c0-0.1,0-0.2,0.1-0.1l0.8,0L177.9,171.4z"/>
						<path class="st1" d="M234.8,89.6l0.4-1.9C235.1,88.6,234.9,89.1,234.8,89.6z"/>
						<path class="st1" d="M231.1,102.1c0,0.1,0.1,0.2,0.1,0.3C231.2,102,231.2,101.9,231.1,102.1z"/>
						<path class="st1" d="M138.9,245.3c-0.5-0.5-1-0.9-1.5-1.4c-0.5-0.5-0.9-0.9-1.3-1.3c-0.7-0.7-1.2-1.2-1.3-0.9l0.4,0.8
							c0.8,0.5,1.4,1,2,1.5C137.9,244.5,138.4,244.9,138.9,245.3z"/>
						<path class="st1" d="M128,119.7c-0.2,0.2-0.4,0.3-0.7,0.5c-0.4,0.6-0.7,1.2-1,1.7C126.9,121.2,127.4,120.5,128,119.7z"/>
						<path class="st1" d="M128.2,117c1-0.8,2-1.6,3-2.3c-0.4,0.2-0.8,0.5-1.3,0.9C129.5,116,128.9,116.5,128.2,117z"/>
						<path class="st1" d="M169.6,79.8l-2.1,0.8C170.9,80.1,169.4,80.1,169.6,79.8z"/>
						<path class="st1" d="M216.8,218.4c-0.2,2.4-0.2,4.3-0.3,6C216.7,221.5,217.1,219.1,216.8,218.4z"/>
						<path class="st1" d="M237.7,96.1c0.3-1.2,0.3-1.7,0.2-1.7C237.6,95.6,237.5,96.3,237.7,96.1z"/>
						<path class="st1" d="M216.5,231.4c0-0.4,0.1-0.8,0.1-1.3c-0.1-1.8-0.1-3.5-0.1-5.7C216.3,226.6,216.2,229,216.5,231.4z"/>
						<path class="st1" d="M143.4,274.7c0.2,0.1,0.4,0.2,0.6,0.2C144.1,274.9,143.8,274.8,143.4,274.7z"/>
						<path class="st1" d="M222.3,278c-0.8,0.2-2,0.5-3.2,0.8C219.7,278.6,220.6,278.4,222.3,278z"/>
						<path class="st1" d="M189.8,197.6C187.9,197.6,189.5,197.7,189.8,197.6L189.8,197.6z"/>
						<path class="st1" d="M180.7,195.9c0.5,0,0.9-0.1,0.9-0.2C181.5,195.8,181.2,195.9,180.7,195.9z"/>
						<path class="st1" d="M219.2,249.3c0,0.1,0,0.1,0,0.2C219.3,249,219.3,249.1,219.2,249.3z"/>
						<path class="st1" d="M187,197.4c0.7,0.1,1.5,0.1,2.3,0.1C189,197.5,188.3,197.5,187,197.4z"/>
						<path class="st1" d="M187.4,197.6c-0.6,0-1.1,0-1.6,0C185.6,197.7,185.8,197.7,187.4,197.6z"/>
						<path class="st1" d="M192.3,197.6c-1,0-2,0-2.9,0c0.4,0,0.5,0.1,0.4,0.1C190.3,197.6,191,197.6,192.3,197.6z"/>
						<path class="st1" d="M82.3,157.5c0,0.1-0.1,0.2-0.1,0.4C82,159.6,82.1,158.8,82.3,157.5z"/>
						<path class="st1" d="M108.8,210.5c0,0.1,0.1,0.1,0.1,0.2C108.9,210.6,108.8,210.5,108.8,210.5L108.8,210.5z"/>
						<path class="st1" d="M106.8,204.1c0.6,1.3,1,2.4,1.3,3.3c0.3,1,0.5,1.9,0.8,2.9c0.2-0.8,0.4-1.6,0.6-2.4l-1.4-1.9L106.8,204.1
							z"/>
						<path class="st1" d="M211.4,80c1.4,0.4,2.9,0.7,4.3,1.1c-2.7-0.2-5-0.4-6.1-0.5c-1.1-0.1-1.1,0,1,0.6c0.4-0.6,4.7,0,8.9,0.9
							c4.2,0.9,8.3,2.1,8.8,1.5c0.9,0.4,1.8,0.8,2.7,1.2c-0.8-0.3-0.9-0.3-1.7-0.5c2.6,1.2,3.6,1.3,4.9,1.5l0.2,0l0.1,0l0.1,0
							c0.1,0,0.2,0,0.2,0c0.2,0,0.4,0,0.7,0.1c0.1,0,0.3,0.1,0.4,0.1c0.1,0,0.2,0,0.2,0.1c0,0,0.1,0,0.1,0l0,0.1
							c-0.1,0.3-0.2,0.7-0.3,1.2c-0.2,0.5-0.3,0.9-0.5,1.3c-0.2,0.5-0.3,0.9-0.5,1.1c-0.2,0.5-0.3,0.5-0.2-0.4l-1.3,5.7
							c-0.5,1.6-0.6,1.2-0.1-0.5l-1.2,4.3l-0.9,3.3l0-0.1c0,0.2,0,0.4,0,0.7c0,0.1,0,0.3,0,0.4l0,0.2c0,0.1,0,0.2-0.1,0.2
							c-0.4,0-1-0.2-1.4-0.3c-1.3-0.7,0.7,0.1,0.3-0.2l-0.7-0.2l-0.8-0.2c-0.8-0.2-1.6-0.5-2.4-0.7c-0.9-0.5-0.3-0.5,0.8-0.2
							c0.6,0.1,1.4,0.4,2.1,0.6c0.4,0.1,0.9,0.3,1.2,0.5c-0.6-0.6-0.8-0.9-1.1-1c-0.7-0.3-1.4-0.5-2.2-0.7c-1.7-0.4-4-1.1-8.8-2.8
							c1.6,0.3,3.1,0.7,4.6,1.1c-2.7-1.6-6.4-2.4-11.7-3.9c0.6,0.2,3.2,1,5,1.8c1.7,0.7,2.6,1.3-0.1,0.8c-1.5-0.4-3.5-1-6.4-1.2
							c0.1-0.5-2.8-0.9-6.4-1.2l0.3-0.6c-2-0.1-2.9-0.1-3.6,0c-0.7,0.1-1.2,0.2-2.4,0.3c-2.2-0.2-3.4-0.4-4.3-0.6
							c-0.9-0.2-1.4-0.5-1.9-0.7c-6.9-0.2,4.8,0.9-3.4,0.9c-2.9-0.1-5.3,0-7.9,0.2c-1.3,0.1-2.6,0.3-4,0.5c-1.4,0.2-3,0.5-4.6,0.9
							c-4,0.4,0.6-0.5-0.8-0.5c-1.2,0.3-2.3,0.8-3.4,1.1c-0.9,0.2-0.6-0.1-0.5-0.2c-2.9,0.8-0.1,0.7-4.7,1.9c-0.3,0.2-1,0.5-2,0.7
							c-1,0.2-2.4,0.5-3.8,0.9c-0.7,0.2-1.5,0.4-2.3,0.6c-0.8,0.2-1.5,0.5-2.3,0.8c-1.6,0.5-3,1.3-4.3,2.1c-1.4,0.4,0.5-0.6,0-0.7
							c-3.6,2-5,3-6.3,3.9c-1.3,0.9-2.4,1.7-4.9,3.9l-2.4,1.5c-0.8,0.5-1.5,1.1-2.3,1.6c3.5-2.2-0.3,1.4-3.2,5
							c1.2-0.9,2.2-1.5,2.9-2c-1.7,1.7-3.3,3.5-4.8,5.3c-0.6,0.6-0.4-0.1,0.3-1.2c-0.3,0.4-0.6,0.8-0.8,1.1
							c-1.9,1.8-1.3,0.6-0.3-1.1c0.7-0.6,1.4-1.1,2.1-1.6c0.9-1.6,1.9-3,1.4-3c-0.3,0.4-1,1-1.6,1.8c0.3-0.4,0.4-0.7,0.2-0.6
							c-0.2,0.1-0.7,0.8-1.4,1.8c-0.6,0.2-1.1,0.5-1.7,0.7l-0.1,0.5c-1.1,1.2-2.2,2.3-3.3,3.6c-0.5,0.6-1.1,1.2-1.6,1.9l-1.5,2
							c-0.4,0.8-0.8,1.5-1.2,2.3c-0.4,0.8-0.7,1.6-1.1,2.3c-0.3,0.8-0.6,1.6-1,2.4c-0.2,0.4-0.3,0.8-0.5,1.2
							c-0.1,0.4-0.3,0.9-0.4,1.3c-1.3,3.5-2.5,7.5-3.9,12.7c0.3-2.7-0.7-0.8-1.2-1.1c0.7-1.4,1.3-3.4,2-5.7c0.4-1.2,0.8-2.4,1.3-3.7
							c0.5-1.3,1.1-2.6,1.7-3.8c-1.3,2.7-1.3,2-1.1,1.2l-0.9,2.4l-0.8,2.4c-0.6,1.6-1,3.3-1.5,4.9c-0.4-0.4-1,1.9-1.9,4.4
							c0.7-0.8,0.4,1-0.1,3.6c-0.3,1.3-0.5,2.8-0.8,4.2c-0.2,1.4-0.4,2.8-0.5,3.8c-0.2,0.1-0.3-0.1-0.3-1c0-0.9,0.1-2.4,0.7-4.8
							c-0.9,2.7-0.9,4.5-0.8,6.3c0,0.9,0.1,1.8,0.1,2.8c0,1-0.2,2.1-0.4,3.4c0.1-1.2,0.2-1.9,0.1-2.4c0,1.4-0.1,3.9-0.3,5.8
							c-0.1,1.9-0.3,3.2-0.4,2.4l0-1.2c-0.2,4.1-0.1,10.2,0.6,15.5c0.3,2.6,0.8,5,1.2,6.9c0.5,1.8,0.9,3,1.1,3.3
							c-0.1,0.1-1.2-0.8-1.5-1.3c1.8,4.6,3.9,9,6.4,13.1c-1.1-1-1.2,4.3-3.7-2c0.3,0.9,0.6,2,1,3.3c0.5,1.3,1.1,2.8,2,4.6
							c-0.5-1.3-0.2-3.5,0.5-1.8c1.2,4.9,0.9,3.4,3.1,9.1c-0.9-1.8,1.2-0.4,2.8,2.2c-0.4-0.3-0.8,0.8-1.5-0.1c0.8,1,1.7,2,2.6,3
							c0.9,1,1.8,1.9,2.7,2.8c-0.7-0.7-0.9-0.6-0.9-0.2c0,0.5,0.3,1.3,0.8,2.1c-0.2-0.4,0.9,1,2.2,2.5c0.7,0.8,1.4,1.6,2.1,2.3
							c0.7,0.7,1.3,1.3,1.7,1.7c-0.7-0.9-1.5-1.7-2.2-2.5c3,3.3,5,4.4,6.9,5.4c2,1,3.9,2,7.5,4.3c-1-0.3-3-0.2,0.8,2.3
							c0.5,0.1,1.4,0.3,2.4,0.6c1.1,0.3,2.4,0.5,3.8,0.8c1.4,0.4,3.1,0.6,4.8,1c0.9,0.2,1.7,0.4,2.6,0.6c0.9,0.2,1.8,0.4,2.7,0.6
							l1.3,0.7c0.9,0.2,1.9,0.4,2.8,0.6c0.9,0.2,1.9,0.4,2.8,0.5c-1.8,0.1-5.3-0.1-9-0.6c-3.7-0.5-7.7-1.6-10.4-2.5
							c1.4,0.8,1.6,1,2,1.3c0.2,0.1,0.4,0.3,0.9,0.5c0.5,0.2,1.2,0.5,2.4,1c0.8,0.5,0.1,0.3-1,0c-0.5-0.2-1.1-0.4-1.7-0.6
							c-0.6-0.2-1.1-0.5-1.4-0.6c3.5,1.7,7.2,3.2,10.9,4.3c-0.2-0.4,2,0.1,4.2,0.5c1.1,0.2,2.2,0.4,3,0.4c0.8,0.1,1.3,0.1,1.2-0.1
							c-4.1-0.5-8.3-1.4-12.3-2.6c-0.2-0.8,7.4,0.7,15.3,2c2,0.6-1.7,1-1.6,1.2c0.5,0,2.5,0.2,4.4,0.4c1.9,0.1,3.7,0.3,4.1,0.4
							l-3.5,0c1.1,0.2,2.2,0.3,3.2,0.3c1,0,2,0,2.9,0c2,0,4-0.1,6.8,0.2c1.9,0,5.6,0.8,5.9,0.4c-3.1-0.7-3.7-3-1.7-3.7
							c0.3,0,2.7,0.1,5.3,0.2c2.6,0.1,5.4,0,6.5,0.1c3.1,0.3-4.4,1.9-1.8,2.2c0.1-0.2,1.8-0.6,2.5-0.8c2-0.1-0.7,0.7,3.5,0
							c0.6-0.7,8.6-1.6,1.9-0.9c2-0.5,3.1-0.7,4.3-0.9c1.2-0.2,2.5-0.5,4.8-1.3c-0.4,0-0.4-0.1,0-0.4c0.2-0.1,0.4-0.3,0.7-0.5
							c0.3-0.2,0.7-0.5,1.1-0.7c0.4-0.2,0.8-0.5,1.2-0.8c0,0,0.1-0.1,0.1-0.1l0-0.2l-0.1-0.4c0-0.3-0.1-0.6-0.1-0.8
							c-0.1-1.1-0.2-2.2-0.3-3.2c0.2,0.2,0.4-0.7,0.5-1.1c0.1-8.5,0.4-13,0.4-20.9c0.2-0.7,0.4-4.5,0.7-2.9
							c-0.1-1.1-0.4-2.2-0.4-4.6c0.6-4.7,0.1,5.4,0.8,1.8c-0.4-0.3-0.5-6.3-0.8-9.8c-0.6,1.1-0.1,8,0.1,11.5c-0.8,0-1.7-6-2.1-14.3
							c-0.2-6.6,0.5-2.8,0.4-4c0-3.2,0-5.4-0.2-7.2c0-0.1,0-0.2,0-0.3l0-0.2c0-0.1,0-0.3-0.1-0.4c0-0.3-0.1-0.5-0.1-0.7
							c-0.1-0.4-0.2-0.8-0.2-1.1c-0.9,0.1-1.5,0.3-2.3,0.3c-0.2,0-0.3,0-0.5,0c-0.2,0-0.4,0-0.6,0c-0.4,0-0.8,0-1.3,0
							c-0.9,0-2-0.1-3.2-0.1c-4.1-0.5-0.2-1.1-1.1-1.5c2.3-0.1,4.2,0,5.8,0.1c1.7,0.1,2.8,0.2,4.1,0.3c0,0.4,0,0.8,0,1.2l0.1-1.3
							l-2.7-0.2c0.7-0.1,1.8-0.2,3-0.2c0.1,1.4,0.1,3,0,4c0.1-0.7,0.2-2.2,0.2-4.2c-3.4-0.1-8.1-0.1-12.9-0.1
							c-4.8,0-9.7-0.1-13.4-0.2c-1.7,0.2-4.6,0.4-3.2,0.6l3-0.1c2.8,0.4-5.7,0.6-1.9,0.8c-1.9,0.1-3.8,0.3-5.9,0.4
							c-0.5,0-1.1,0.1-1.6,0.1c-0.6,0-1.2,0-1.8,0.1c-1.6,0-3.3,0-5,0c0-0.6,0-1.2,0-1.9c0.2-0.6,0.4-1.2,0.6-1.7
							c-0.1,0.1-0.2,1.5-0.2,3.2c1.3,0,2.8,0,3.7-0.1c-0.9,0.1-2.2,0-3.6,0c0-0.9,0.1-1.9,0.2-2.9c0-0.9,0.1-1.8,0.1-2.7
							c0-1.5,0-2.9-0.3-3.8l-0.4,4c-0.2-2-0.4-4.3-0.6-6.7c-0.1-1.2-0.2-2.4-0.2-3.7c0-1.3,0-2.2,0-4.5c-0.2,0.8-0.2,1.4-0.3,1.9
							c0,0.4,0,0.5,0,0.7c0,0.5,0,1.1-0.4,2.8c0.9-3.1,0,12.9,0.9,7.9c-0.5,1.6-0.5,5.1-0.6,8.4c1.2,0,2.5,0.1,4,0.1
							c0.7,0,1.5,0.1,2.3,0.1c0.6,0.1,1,0.1,1.5,0.2c-0.1-0.2-1.7-0.4,2.5-0.3c0.2-0.1,0.6-0.1,0.9-0.2c0.1,0,0.2,0,0.3,0
							c-0.1,0-0.1,0-0.2,0c0.2,0,0.2,0-0.1,0c-1-0.1-1.8-0.2-2.1-0.3c2.1-0.5,8.8-0.4,11.1-0.7c2.5,0.1-1,0.2,0.3,0.4l3.4-0.4
							c0.3,0.4,6.7,0.7,0.8,1l5.3,0c1.6,0.1,3.4,0.2,5.2,0.2c0.9,0,1.8,0,2.6,0c0.4,0,0.8,0,1.2,0c0.2,0,0.4,0,0.6,0l0.3,0
							c0.1,0,0.1,0,0.1,0c0.3,0,0.7-0.1,1.2-0.2c0.1,0.3,0.2,0.4,0,0.2l0.1,0.6l0,0.3l0,0.1l0,0.3l0,0.5l0.1,4.2l-0.1,0.1
							c-0.1,8.2,0.7,16.9-0.1,26.3c0.1,2.8,0.3,5.6,0.1,10.3l-0.4,0.9c0.1,1.8,0,4.4-0.1,6.9c0,1.2-0.1,2.3,0,3.3c0,0.5,0,0.9,0,1.2
							c0,0.1,0.1,0.2,0.1,0.3c-0.1,0.1-0.2,0.2-0.3,0.3c-0.2,0-0.4,0-0.6,0.1c-1.5,0.5-3.6,1.1-5.7,1.6c-4.2,1.1-9,1.8-12,2
							l-0.2,0.5c-4.2,0.3-8.2,0.7-13.5,0.9l0.3,0.5c-1.1,0.1-2.4,0.1-3.8,0c-1.4-0.1-2.9-0.2-4.5-0.4c-3.2-0.4-6.7-1-10.2-1.7
							c0.5-0.1,2.3,0.3,3.5,0.6c-4.1-1.2-8.5-2-12.7-3.1c-4.2-1.1-8.2-2.6-11.5-4.8c-0.9-0.4-1.6-0.7-2.3-1.1
							c-0.6-0.4-1.2-0.8-1.7-1.2c0.2,0.1,0.3,0.2,0.4,0.2c-0.2-0.1-0.4-0.3-0.7-0.4c-0.7-0.5-1.3-1.1-2.1-1.7
							c0.6,0.5,1.2,1.1,1.7,1.4c-0.6-0.4-1.4-0.9-2.2-1.5c-0.4-0.3-0.9-0.6-1.3-0.9c-0.4-0.3-0.9-0.6-1.3-0.9l-0.4-0.9
							c-0.1-0.1-0.3-0.2-0.4-0.3c-1.5-1.5-1.4-0.9-0.8,0.1c-0.9-0.7-1.7-1.3-2.4-1.7c-0.4-0.9-1.4-1.8-2.6-2.8
							c-1.1-1.1-2.2-2.2-2.7-3.4c-0.3-0.2-0.9-0.8-1.7-1.7c-0.8-0.8-1.6-1.9-2.4-3c-0.8-1.1-1.6-2.2-2.3-3c-0.7-0.9-1.2-1.5-1.5-1.7
							c0.1-0.1-0.2-0.7,0.4,0.3c-0.6-1.1-1.2-2.2-1.7-3.3c-0.5-1.1-1.1-2.1-1.7-3.1l0.1-1.2c-1-1.5-1.9-3.1-2.8-4.7
							c-0.7-3.2-0.9-4.6,0.6-1.7c-0.4-0.9-0.7-1.7-1-2.3c-0.3-0.7-0.5-1.3-0.6-1.8c-0.4-1-0.6-1.7-0.8-2.4c-0.2-0.7-0.4-1.4-0.7-2.2
							c-0.1-0.4-0.3-0.9-0.5-1.5c-0.2-0.6-0.4-1.3-0.6-2.1l0.4,0.2c-0.2-1.2-0.7-2.7-0.9-4.1c-0.3-1.4-0.5-2.7-0.4-3.5
							c0.1-2.7-0.5-9.3-0.2-17c0.3-7.7,1.6-16.3,3.8-22.8c-0.9,1.1-0.4-0.4,0.4-2.2c0.8-1.8,1.8-4,1.4-4.4c0.6-0.6,1.4-2.3,0.8-0.2
							c1.1-3.3,2.3-5.6,3.5-7.6c1.1-2,2.1-3.8,3.1-6c0.7-0.5-0.5,1.4,0.1,1c0.2-0.5,1-1.9,1.6-2.4c0.5-0.5-0.4,1-0.9,1.9
							c3.9-5.8,3.9-6.7,3.6-7.6c0.7-0.6,1.2-1.2,1.7-1.7c0.5-0.5,1-0.9,1.4-1.4c0.8-0.9,1.5-1.8,2.3-2.9c1.1-0.7,2.8-1.9-0.4,1.2
							c0.9-0.8,3.7-3.4,6.6-5.4c0.4-0.3,0.7-0.5,1-0.8c0.4-0.2,0.7-0.5,1-0.7c0.7-0.5,1.3-0.9,1.8-1.2c1-0.7,1.7-1.2,1.7-1.4
							c0.4-0.1,1.1-0.6,1.9-1c0.8-0.4,1.5-0.8,1.7-1c1.2-0.7,2.2-1.1,3.1-1.5c0.8-0.4,1.5-0.7,2.2-1c1.4-0.5,2.8-1.2,5.4-2l-1.5,0.4
							c1.8-1.4,4.3-1.7,8.6-2.8l-0.1,0.1c2.5-0.5,4.1-0.7,5.1-0.9c1-0.2,1.6-0.3,2.1-0.4c1.1-0.2,2.1-0.5,7.2-0.7l-0.6-0.4
							c0.4-0.6,2.7-0.6,5.6-0.5c1.4,0.1,3,0.2,4.6,0.3c1.6,0.1,3.2,0.1,4.7,0.1c-0.7-0.1-1.4-0.2-2.1-0.3c0.8-0.1,1.8,0,2.8,0.2
							c1,0.1,2.2,0.4,3.3,0.7c1.1,0.3,2.2,0.6,3.2,0.8c1,0.3,2,0.5,2.7,0.6c0.7,0.2-1.1,0-2.1,0c4.1,0.7,4.4,0.6,4.4,0.4
							c0-0.2-0.2-0.6,2.9-0.3c1.1,0.5-1.6,0.6,2.5,1.4c1,0.3,4,0.6,7.4,1.3c3.4,0.7,7.2,1.7,9.8,3.1c-0.6-0.4-1.1-0.7-1.2-0.9
							c0-0.1,0.1-0.1,0.3-0.1c0.1,0,0.3,0.1,0.6,0.1c0.1,0,0.2,0.1,0.4,0.1c0.2,0.1,0.4,0.1,0.6,0.2c0.7,0.3,1.5,0.6,2.3,1
							c0.9,0.4,1.8,0.8,2.7,1.2l0.2,0.1c0,0,0.1,0,0.1,0l0-0.1l0.1-0.4l0.2-0.7c0.2-0.5,0.3-1,0.5-1.5c0.4-1,0.7-2.1,1.1-3.1
							c1-2.9,1.9-5.7,2.1-7.7c0.2-0.5,0.4-0.7,0.4-0.7c0.2-0.8,0.5-1.9,0.8-3.2c0.4-1.4,0.7-2.9,1.1-4.4c0.2-0.9,0.4-1.7,0.6-2.6
							c0,0,0-0.1,0-0.1l-0.2-0.1L240,84c-0.2-0.1-0.4-0.2-0.6-0.2c-0.4-0.2-0.8-0.3-1.1-0.4c-1.4-0.5-2.6-0.9-3-1
							c-0.6-0.7-2.2-1.5-4.3-2.2c-2.1-0.7-4.6-1.3-7.1-1.8c-4.9-1-9.5-1.5-9.3-2.3c-3.5-0.6-7.1-1-10.7-1.4l0.3-0.1
							c-6.8-0.8-9.3-0.4-11.7-0.1c-1.6-0.1-0.4-0.3-0.3-0.3c-10-0.4-11.1-0.2-19.3,1.3l-0.9-0.4c-1.1,0.2-4.7,0.5-9.3,1.1
							c-2.3,0.4-4.8,0.7-7.3,1.4c-1.2,0.3-2.5,0.6-3.7,1c-1.2,0.4-2.4,0.8-3.6,1.2c0.1-0.1,0.2-0.2,1-0.5
							c-5.2,1.9-11.6,3.9-16.9,6.4c-2.6,1.3-5,2.4-6.9,3.7c-0.9,0.6-1.7,1.2-2.4,1.7c-0.6,0.6-1.1,1.1-1.4,1.6c-1,0.8-2,1.5-2.9,2.2
							l-2.8,2.4c7.6-5.6-0.7,1.5,2.6-0.6c-0.7,0.6-1.6,1.2-2.4,1.7c-0.8,0.6-1.6,1.1-2.1,1.5c-1.1,0.7-1.5,0.8,0.2-0.7l0.6-0.4
							c0.4-0.9-2,0.9-4.3,2.9c-1.2,1-2.3,2.1-3.2,2.9c-0.9,0.8-1.5,1.3-1.5,1.2c-6.5,6.7-12,14.3-16.3,22.2c-4.3,8-7.5,16.5-9.5,25
							c0.4-0.6,0.8-1.2,1.2-1.8c-0.6,1.9-0.9,3.9-1.4,5.9c-0.5,1.5-1,2-0.1-2.3c-1,2.2-1,7.3-0.8,7.4c-0.7,4.2-0.8,3.4-0.8,1.8
							c0-1.6,0.3-3.9,0.1-2.6c-0.2,1.2-0.3,2.4-0.4,3.5l0.2-0.8c0,1.5,0,2.2,0,3.3c0,1.1-0.1,2.4-0.3,5c-0.4,3.3-0.6,1.7-0.6,3
							c-0.1,0-0.1,0.4-0.1,2c-0.1,2.6,0,5.1,0,7.7l0.5-3.1c0.2,1.7,0.2,3.5,0.3,4.4c0.1,0.9,0.2,1,0.4-0.8c-0.2,1.3-0.2,3.7,0,6.7
							c0.1,1.5,0.3,3.1,0.4,4.8c0.2,1.7,0.5,3.4,0.7,5.1c1.1,6.8,3.1,13.2,3.4,14.7c0.8,2.2,1.8,4.4,2.7,6.7c1,2.3,1.9,4.8,3.2,7.4
							c-0.5-1.4-0.3-2.4,1.8,2.1c-1-0.5-0.1,1.6,1.3,4.3c0.7,1.3,1.6,2.8,2.3,4.2c0.8,1.4,1.5,2.6,1.9,3.6c-0.4-0.8-0.1-0.5,0.6,0.3
							c0.7,0.8,1.8,2.2,2.8,3.5c2.2,2.5,4.3,4.8,2.8,2.3c1.3,1.6,1.3,1.7,1.1,1.8c-0.2,0.1-0.4,0,0.6,1.3c3.6,3.5,7.8,7.1,12.5,10.6
							c4.7,3.4,10,6.6,15.7,9c0.2-0.1-1.6-1.1,1-0.3l2.9,1.6l2.9,1.4c2.3,0.8,2.4-0.1,6.5,1.7c-0.6-0.3-1.4-0.7,0.2-0.3
							c11.5,3.5,23.9,4.6,36.2,4.5c12.3-0.1,24.6-1.5,36.4-3.9c-3.2,0.6-1.1,0.1,1.4-0.4c-1.6,0.3,0-0.1-0.3-0.1
							c3.3-0.7,6.6-1.4,9.9-2.3c0.9-0.3,3.5-1.1,6-1.8c2.5-0.8,4.9-1.6,5.4-1.8l-3,1c2-0.7,0.6-0.2-1.3,0.3c-1.9,0.5-4.2,1.1-3.9,1
							c-2.3,0.7-5.4,1.4-8.8,2.1c-3.5,0.7-7.3,1.4-11.1,2.1c-1.7,0.2,1.4-0.3,0.5-0.2c-1,0.2-2,0.4-3.4,0.6
							c-0.7,0.1-1.5,0.2-2.3,0.3c-0.9,0.1-1.8,0.2-3,0.3l0.5-0.1c-6.2,0.7-10.6,1-15.3,1c-4.6,0-9.5,0-16.4-0.6l1,0.3
							c-3-0.2-3.6-0.4-5-0.6c-1.7,0,0.4,0.3,2.5,0.5c2.1,0.2,4.3,0.3,2.7,0.4c-1-0.2-2.8-0.4-5-0.7c-2.2-0.2-4.8-0.6-7.3-1
							c-1.3-0.2-2.5-0.4-3.7-0.7c-1.2-0.2-2.3-0.4-3.3-0.7c-2-0.5-3.5-0.9-4.1-1.3c-4.4-1.2,1.2,0.8-3.2-0.5l-1.1-0.5
							c-0.4,0-0.8,0-1.2-0.1c-2.8-1-4.2-1.7-4.2-2c0.7,0.3,2,0.6,2.7,0.9c-1.8-0.7-4.3-1.7-6.6-2.5c-2.2-0.9-4.1-1.7-4.7-2.1
							c1.3,0.7,2.6,1.3,3.9,1.9c-5.8-2.3-11.8-5.7-17.3-9.7c-5.5-4-10.6-8.5-14.8-12.7l0.4,0.8c-3.2-3.3-4.2-4.9-5.3-6.4
							c-1-1.7-2.2-3.4-4.8-7.7l0.2,0.3c-0.6-0.8-1.2-1.8-1.9-2.9c-0.3-0.6-0.6-1.1-1-1.7c-0.3-0.6-0.6-1.2-0.9-1.9
							c1.3,2.2-1.6-4.5,0.1-1.6c-0.6-1.1-1-2-1.4-2.8c-0.4-0.7-0.6-1.3-0.9-1.8c-0.5-0.9-0.7-1.4-0.9-1.7c-0.4-0.7-0.7-1-2.2-4
							l-0.1-1.6c-0.9-2.1-1.3-2.2-2.6-7.1c1.3,4-0.2-3.3,1.3,1.1c-0.9-5.2-1.7-9-2.4-12.2c-0.4-1.6-0.5-3-0.7-4.3
							c-0.1-1.3-0.2-2.6,0.1-3.8c-0.6-2.4-0.7-0.1-0.5,2.5c0.2,2.6,0.6,5.4,0.3,4c0,1.2-0.4,0.2-0.7-1.5c-0.3-1.7-0.7-4.1-0.7-5.8
							c-0.1-1.7,0.1-3.2,0.4-5.3c0.1-1,0.3-2.3,0.4-3.7c0.1-1.5,0.3-3.2,0.3-5.3c0,0.8,0,0.9,0,1.7c0.1-0.8,0.1-1.6,0.1-2.4
							c0-0.8,0.1-1.6,0.1-2.4c0-1.6,0.1-3.4,0.6-5.3c-0.2-1.1,0-2.4,0.1-3.4c0.2-1.1,0.3-1.9-0.1-2.3c-0.4,2.6-0.6,5.2-0.8,7.8
							c0.1-1.1,0.1-2.2,0.1-3.3c0-0.6,0-1.1,0-1.7c0-0.6,0.1-1.2,0.1-1.8c0.1-1.3,0.2-2.6,0.5-4.1c0.3-1.5,0.6-3.1,1.1-4.8
							c0,0.6-0.2,2.8-0.4,4.3c0.7-2,0.7-4.1,1.5-6.1c0.2,0.2,0.1,0.9-0.1,1.9c-0.2,1-0.4,2.3-0.7,3.7c-0.1,0.7-0.3,1.4-0.4,2.2
							c-0.1,0.8-0.2,1.5-0.3,2.3c-0.2,1.5-0.4,2.9-0.3,4.1c0.6-2.2,0.8-8.9,1.3-6.4c-0.4-3.6,1.8-8.1,2.8-13.8l0.3,0.5
							c0.1-0.4,0.2-1.1,0.4-1.9c0.2-0.8,0.5-1.6,0.8-2.4c-0.1,1-0.3,2-0.4,3c1-4.5,3.5-8.2,5.2-12.2c-1,2.1-1.6,3.2-1.9,3.8
							c-0.3,0.6-0.4,0.7-0.5,0.6c-0.1-0.2,0-1.1-0.9,0.7c0.9-2.7,1.8-4.4,2.5-5.6c0.3-0.6,0.6-1.1,0.9-1.5c0.3-0.4,0.6-0.8,0.9-1.1
							c0.6-0.7,1.2-1.4,2.1-2.7c0.4-0.6,1-1.4,1.6-2.3c0.6-0.9,1.3-2.1,2.2-3.4c-0.2,0.4-0.6,0.9-1,1.4c-0.4,0.5-0.8,1.1-1.1,1.5
							c-0.7,0.8-1,1.2-0.4,0c0.3-0.5,0.7-1,1.1-1.6c0.4-0.5,0.8-1.1,1.2-1.6c0.8-1,1.6-1.9,2.1-2.4c5.1-6.7-1.2,0.7,0.8-2.3
							c1.1-1,1.7-1.8,2.3-2.8c0.6-1,1.2-2.1,2.5-3.5l0.4,0.3c3.4-3.4,3.8-3.9,4-4.5c0.1-0.3,0.2-0.5,0.7-1c0.2-0.3,0.6-0.6,1.1-1.1
							c0.5-0.4,1.2-1,2-1.6c-0.8,1-1.6,1.9-2.4,2.9c1-1.1,2.2-2.1,3.3-3.1l-0.4,1c1.7-1.8,3-2.8,4.3-3.7c1.3-1,2.6-1.8,4.7-3.1
							c-1.1,0.4,0-1.1,3.7-3.3c1.3-0.6,1-0.3,1.1-0.3c0,0,0.1,0,0.5-0.2c0.4-0.2,1.2-0.6,2.5-1.3c-1.1,0.9-2.2,1.9-4.7,2.9
							c-0.2,0.3-1,1-1.2,1.2c2.8-1.4,6.9-3.9,8.9-4.8c-0.8,0.3-1.7,0.8-2.2,1c1.2-0.8,2.5-1.5,3.8-2.2c0.6-0.4,1.3-0.7,1.9-1.1l2-1
							c1.4-0.4,0.4,0.2-0.6,0.7c1.6-0.7,2.7-1.5,5.2-2.3c-0.3,0.3-0.3,0.5-0.7,0.9c-0.2,0.2-0.5,0.4-1,0.6c-0.5,0.3-1.1,0.6-1.9,1
							l1.9-0.9l1.9-0.8c1.3-0.5,2.6-1.1,3.9-1.5c0.6,0,4.3-0.8,3.3-0.3c4.5-1,10.9-3.5,17.1-4c0.3-0.1,0.9-0.3,2.2-0.5
							c1.5-0.1,2.9-0.2,4.3-0.3c1.4,0,2.8-0.1,4.3-0.1c1.4-0.1,2.9-0.1,4.5-0.1c1.5-0.1,3.2-0.2,4.9-0.3c1.3,0.3,2.6,0.5,3.9,0.8
							c5.4,0.1-5.3-1.1,3.8-1c3.2,0.1,3.8,0.3,3.8,0.5c0.1,0.2-0.4,0.4,0.7,0.6c3.2-0.1,8.8-0.2,14.5,1.5
							C214.7,80.6,213.2,80.3,211.4,80z M216,98.6c1.3,0.2,4,0.6,4.9,1.2C219.3,99.8,218.2,99.3,216,98.6z M120.8,126.8
							c0.5-0.9,1.4-2.1,2.7-3.3C122.7,124.4,121.8,125.6,120.8,126.8z M209.5,197.2c0.1,0,0.1,0,0.1,0
							C212.6,197.4,211.6,197.3,209.5,197.2z M203.4,197c-0.6,0.1-0.6,0.1-0.3,0.2c0.4-0.1,1.8-0.1,3.4-0.1
							C206,197,205.2,196.9,203.4,197z M76.9,176.3l0.2-1.2C77.1,177.8,77,177,76.9,176.3z"/>
						<path class="st1" d="M128.2,117.4c0.3-0.2,0.5-0.2,0.6-0.2C129.1,116.7,129,116.7,128.2,117.4z"/>
						<path class="st1" d="M170,79.7l-0.2,0c-0.1,0-0.2,0.1-0.2,0.1L170,79.7z"/>
						<path class="st1" d="M201.5,261.6c-1.3,0.1-2,0.1-2.5,0C199,261.8,199.6,261.8,201.5,261.6z"/>
						<path class="st1" d="M175.1,188l0.1,2l0.1,2.6c0-0.7,0-1.3,0-1.8c0-0.3,0-0.6,0-0.9c0-0.5,0.1-0.9,0.1-1.4
							C175.3,188.4,175.1,189.2,175.1,188z"/>
						<path class="st1" d="M197.9,173.9c0.6-0.1,1.2,0,1.8-0.1l-0.2-0.2C197.1,173.7,195.4,173.8,197.9,173.9z"/>
						<path class="st1" d="M176.7,184.3c0.4-0.3,0.3-2.8,0.2-5.5c0,0.2,0,0.3,0,0.5C176.3,178.5,176.5,181.4,176.7,184.3z"/>
						<path class="st1" d="M176.9,178.2c0-0.5,0-1,0-1.5c0-0.6,0-1.1,0-1.6c-0.1-0.3-0.1,0.1-0.1,0.7
							C176.8,176.4,176.8,177.3,176.9,178.2z"/>
						<path class="st1" d="M195.7,197.3c-1.3-0.1-0.8,0.5-1.5,0.4C192.7,198.2,202.8,197,195.7,197.3z"/>
						<polygon class="st1" points="178,182.1 177.5,183.1 177.9,184.6 						"/>
						<path class="st1" d="M186.9,195.3l-4.4-0.1c0.1,0.1-0.4,0.1-1.2,0.2C184.1,195.3,186.9,195.4,186.9,195.3z"/>
						<path class="st1" d="M181.3,195.3c-1.4,0-2.8,0-3.7,0.1c0-0.1,0-0.2,0-0.2c0,0.1,0,0.1,0,0.3
							C178.4,195.4,180.1,195.4,181.3,195.3z"/>
						<polygon class="st1" points="178.2,188.1 178.1,189.4 178,192.5 						"/>
						<path class="st1" d="M218.7,209.6l0.1,4.8c0.2,0.5,0.3-0.8,0.2-2.6C218.9,210.7,218.8,208.9,218.7,209.6z"/>
						<path class="st1" d="M220,194.4c-0.1,1.7-0.2,1.8-0.4,2.7c0.2,0,0.4,0,0.6,0L220,194.4z"/>
						<path class="st1" d="M220.2,209.1c0.2,0.5,0.5,6.9,0.5,0.9C220.5,209.5,220.3,204.7,220.2,209.1z"/>
						<polygon class="st1" points="194,260.6 195.2,260.5 194.9,259.5 						"/>
						<path class="st1" d="M132.3,246.8c2.2,1.9,2.7,2,3,2c0.3,0,0.6,0.1,2.7,1.6c1.3,0.6-3.4-2.6-2.1-2c-0.8-0.4-1.4-0.9-1.9-1.2
							c-0.5-0.4-0.9-0.7-1.2-0.8C132,246,131.9,246.1,132.3,246.8z"/>
						<path class="st1" d="M135.8,248.5c0.5,0.3,1,0.6,1.6,0.9C136.5,248.8,136.1,248.6,135.8,248.5z"/>
						<path class="st1" d="M235.2,274.4c1.2-0.4,2.3-0.7,3.5-1.1c-0.7,0.2-1.5,0.5-2.2,0.7L235.2,274.4z"/>
						<path class="st1" d="M241.8,272.1l0.8-0.3l2-0.8C243.9,271.4,242.4,271.9,241.8,272.1z"/>
						<path class="st1" d="M206.1,95.4l-0.3,0.1c0.6,0.3,1.4,0.4,3.1,0.7C208,95.9,207,95.7,206.1,95.4z"/>
						<path class="st1" d="M234.9,86.9l-0.1,0.2c0.2-0.1,0.5-0.4,0.8-0.7C235.4,86.7,235.2,86.8,234.9,86.9z"/>
						<path class="st1" d="M198.9,79.9c1.6,0.1,3.6,0.2,5.2,0.4C200.6,80,198.6,79.2,198.9,79.9z"/>
					</g>
				</g>
			</g>
		</g>
	</g>
</g>
<g>
	<g>
		<path class="st0" d="M244.3,173.9c11.4-2.4,29.4-4.2,47.7-4.2c26.1,0,42.9,4.5,55.5,14.7c10.5,7.8,16.8,19.8,16.8,35.7
			c0,19.5-12.9,36.6-34.2,44.4v0.6c19.2,4.8,41.7,20.7,41.7,50.7c0,17.4-6.9,30.6-17.1,40.5c-14.1,12.9-36.9,18.9-69.9,18.9
			c-18,0-31.8-1.2-40.5-2.4V173.9z M270.4,256.7h23.7c27.6,0,43.8-14.4,43.8-33.9c0-23.7-18-33-44.4-33c-12,0-18.9,0.9-23.1,1.8
			V256.7z M270.4,353.6c5.1,0.9,12.6,1.2,21.9,1.2c27,0,51.9-9.9,51.9-39.3c0-27.6-23.7-39-52.2-39h-21.6V353.6z"/>
		<g>
			<g>
				<g>
					<g>
						<path class="st1" d="M270.5,353.3c0,0.2,0,0.3,0,0.3C270.5,352.9,270.5,353.3,270.5,353.3z"/>
						<polygon class="st1" points="270.8,346.8 270.8,346.9 270.8,345.9 						"/>
						<path class="st1" d="M271.1,340.7c-0.3,0.6,0,2.2-0.2,3.3l-0.1,0.2l0.2,0.5C271,343.3,271,341.6,271.1,340.7z"/>
						<path class="st1" d="M272,337.4c-0.2,0.2-0.1-0.7-0.1,0.8c0-0.1,0-0.1,0-0.1C272,337.9,272,337.7,272,337.4z"/>
						<path class="st1" d="M272,338C271.9,338.7,272.1,337.6,272,338L272,338z"/>
						<path class="st1" d="M272.1,335.1l0.1,0.8c0.1-0.2,0.2-0.9,0.2-0.7C272.5,334.4,272.3,334.6,272.1,335.1z"/>
						<path class="st1" d="M271.9,334.3l0,0.4C272,334.6,272,334.5,271.9,334.3z"/>
						<path class="st1" d="M272,335.6l-0.1-0.9c-0.1,0.1-0.2,0.1,0,0.4C271.8,335,271.9,335.2,272,335.6z"/>
						<path class="st1" d="M271.9,336.1c-0.1,0.5-0.2,1.1-0.3,0.2C271.5,338,271.8,337.8,271.9,336.1z"/>
						<path class="st1" d="M270.8,340.3l-0.1,0.6l0.1,0.5C270.7,341.3,270.9,340.3,270.8,340.3z"/>
						<path class="st1" d="M272.8,329.8c-0.1-0.1-0.3,0.3-0.5,0.3l0.1,0.6C272.5,330.4,272.7,329.8,272.8,329.8z"/>
						<path class="st1" d="M272.4,330.1l-0.1-0.9C272.2,330,272.2,330.2,272.4,330.1z"/>
						<path class="st1" d="M271.4,334.1c0.1,0.5,0.2,1,0.2,1.5c-0.1-0.6-0.1-1.2-0.2-1.8L271.4,334.1z"/>
						<polygon class="st1" points="273.2,326.2 273.4,326.7 273,325.8 						"/>
						<path class="st1" d="M273.3,323.8c0.2,0.4,0.5-0.5,0.6-0.1c0-0.6-0.2-1.2-0.3-1.7C273.7,322.5,273.6,323.1,273.3,323.8z"/>
						<path class="st1" d="M273.4,321.2c0,0.3,0.1,0.5,0.2,0.8C273.6,321.7,273.5,321.5,273.4,321.2z"/>
						<path class="st1" d="M272.4,327.6c0.1-0.1,0.3-0.2,0.4-0.7l-0.4,0.4C272.4,327.3,272.4,327.5,272.4,327.6z"/>
						<path class="st1" d="M272.4,327.2L272.4,327.2c0-0.4,0.1-0.7,0.1-0.8C272.5,326.5,272.5,326.8,272.4,327.2z"/>
						<path class="st1" d="M272.4,327.7C272.4,327.7,272.4,327.6,272.4,327.7C272.4,327.6,272.4,327.7,272.4,327.7z"/>
						<path class="st1" d="M271.8,331.6c-0.1-0.6-0.3-1.7-0.6-0.6C271.4,331.5,271.6,330.8,271.8,331.6z"/>
						<path class="st1" d="M271.9,328.1l-0.1,1c0.1,0,0.2-0.2,0.3,0.1L271.9,328.1z"/>
						<polygon class="st1" points="271.9,327.7 271.9,328.1 272,327.8 						"/>
						<path class="st1" d="M272.9,322.9c-0.1-0.4-0.1-0.9-0.1-1.4c-0.1,0.6-0.2,1.2-0.2,1.7C272.6,323.3,272.8,323.5,272.9,322.9z"
							/>
						<path class="st1" d="M272.6,325C272.6,325,272.6,324.9,272.6,325C272.6,325,272.5,325,272.6,325z"/>
						<polygon class="st1" points="272.8,316.2 272.8,316.3 272.8,316.3 						"/>
						<path class="st1" d="M272.4,323.3c-0.1,0.4,0,0.7,0.1,0.9C272.5,323.9,272.5,323.5,272.4,323.3
							C272.5,323.1,272.4,323.1,272.4,323.3z"/>
						<path class="st1" d="M273.3,319.7c-0.1,0.2-0.2,0.5-0.3,0.7C273.1,320.3,273.4,319.8,273.3,319.7z"/>
						<path class="st1" d="M272.7,324.8L272.7,324.8C272.8,324.7,272.8,324.7,272.7,324.8z"/>
						<path class="st1" d="M272.7,324.8c0-0.2-0.1-0.4-0.2-0.6c0,0.3,0,0.5,0.1,0.7C272.6,324.9,272.7,324.8,272.7,324.8z"/>
						<path class="st1" d="M270.1,314.7c0.4,0.1,0.8,1.2,0.3,2.2c0.3,1,1.6,0.3,2.3-0.5c-0.2,0-0.3,0-0.6-1
							c-0.2,0.3-0.5,2.2-0.9,1.4c-0.2-1.3,0.1-1.1,0.3-1.7c-0.5,0.5-0.7-1.7-1.4-1.4l0.3,1.1C270.4,314.7,270.2,314.3,270.1,314.7z"
							/>
						<path class="st1" d="M272.8,318.2l0,0.4c0.1-0.5,0.2-0.8,0.5-1.4c-0.2-0.7-0.4-0.8-0.5-0.9c0,0.7,0,1.3,0,2L272.8,318.2z"/>
						<path class="st1" d="M272.7,320.4c-0.4-0.3-0.6-1.3-1.1-0.7c0,1.2,0.3,0.8,0.5,1.5C272.2,319.3,272.4,321.8,272.7,320.4
							c0,0.4,0,0.7,0,1c0.1-0.3,0.2-0.7,0.3-1c0,0,0,0,0,0l0,0l0,0c-0.1,0.1-0.1,0.1-0.1,0c0,0,0,0,0,0
							C272.8,320.5,272.8,320.4,272.7,320.4c0.1-0.6,0.1-0.1,0.2,0.1c0,0,0,0,0.1,0l0,0c0-0.6-0.1-1.3-0.2-1.9
							C272.7,319,272.7,319.5,272.7,320.4z"/>
						<path class="st1" d="M270.5,330C270.6,330,270.6,330,270.5,330C270.6,329.9,270.6,329.8,270.5,330z"/>
						<path class="st1" d="M270.7,329.2c0,0.1,0.2,0.3,0.1,0.7c-0.1,0.4-0.2,0-0.3,0c0.1,0.3,0.2,1,0.4,0.1l0-0.1
							c0.1-0.8,0.6-1.8,0.6-1.6C271.3,328.5,271,328.7,270.7,329.2z"/>
						<path class="st1" d="M271.5,324.8l-0.1-1.6L271,324l0.2,0C271.1,324.9,271.4,324.7,271.5,324.8z"/>
						<polygon class="st1" points="273,316.1 273.5,316.3 272.8,315.3 						"/>
						<polygon class="st1" points="273,314 273.4,314.1 273.1,313.5 						"/>
						<path class="st1" d="M343.5,299.5l0.3,0.4C343.7,299.7,343.6,299.6,343.5,299.5z"/>
						<path class="st1" d="M341.9,296.2l-0.2,0C341.9,296.3,342,296.3,341.9,296.2z"/>
						<path class="st1" d="M283.9,279c0.7,0.4,1.4,0.9,1.4,0.5l-0.2-0.4C284.6,279.1,284.3,279.1,283.9,279z"/>
						<path class="st1" d="M318.5,280.5c0-0.1-0.1-0.1-0.1-0.2c-0.2,0.1-0.4,0.2-0.6,0.2C318,280.5,318.2,280.5,318.5,280.5z"/>
						<path class="st1" d="M319.5,278.9l0.8,0.6C320.1,279.4,319.9,279.2,319.5,278.9z"/>
						<path class="st1" d="M347,318.7l0.4,0.6C347.4,318.4,347.2,318.8,347,318.7z"/>
						<path class="st1" d="M272.8,292.7c0.2-0.6,0.2-1.1,0.3-1.5C272.8,292,272.5,292.5,272.8,292.7z"/>
						<path class="st1" d="M338.8,300.1c0.2,0.2,0.3,0.3,0.4,0.2C339,300.1,338.9,300,338.8,300.1z"/>
						<path class="st1" d="M273.1,289.5c0,0.1-0.1,0.2-0.1,0.3c0.1,0.4,0.1,0.9,0.1,1.4C273.3,290.7,273.4,290.1,273.1,289.5z"/>
						<path class="st1" d="M295.8,356.7c-0.1,0-0.1,0-0.2,0C295.6,356.7,295.7,356.7,295.8,356.7z"/>
						<path class="st1" d="M276.1,353.9c0.2,0,0.5,0,0.8,0C276.8,353.9,276.5,353.9,276.1,353.9z"/>
						<path class="st1" d="M273.2,305.6C273.2,306.1,273.2,305.7,273.2,305.6L273.2,305.6z"/>
						<path class="st1" d="M271.5,307.8c0-0.1-0.1-0.2-0.2-0.2C271.3,307.6,271.4,307.7,271.5,307.8z"/>
						<path class="st1" d="M270.4,285.2C270.4,285.1,270.4,285.1,270.4,285.2C270.3,285.3,270.3,285.2,270.4,285.2z"/>
						<path class="st1" d="M273,306.3c0.1-0.2,0.1-0.4,0.1-0.6C273.1,305.8,273,306,273,306.3z"/>
						<path class="st1" d="M273.2,306.2c0,0.2,0,0.3,0,0.4C273.2,306.6,273.3,306.6,273.2,306.2z"/>
						<path class="st1" d="M273.1,305c0,0.3,0,0.5,0,0.7c0-0.1,0.1-0.1,0.1-0.1C273.2,305.5,273.2,305.3,273.1,305z"/>
						<path class="st1" d="M330.7,346.2c0,0-0.1,0-0.1,0C330.3,346.7,330.5,346.5,330.7,346.2z"/>
						<path class="st1" d="M295.5,274.6C295.4,274.6,295.4,274.6,295.5,274.6C295.4,274.6,295.5,274.6,295.5,274.6L295.5,274.6z"/>
						<path class="st1" d="M297.1,274.3c-0.7,0.5-1.1,0.4-1.6,0.3l0.5,1.3L297.1,274.3z"/>
						<path class="st1" d="M346.1,307.8l0.1-1.2c0.9,1.3,0.8,2.4,1.2,1.2c-0.7,0-0.9-1.1-1.2-2.2c-0.3-1.1-0.7-2.3-1.3-2.1
							c0-0.3,0-0.6,0-0.8c0.1,0.2,0.1,0.2,0.2,0.4c0.1-1.7-1.3-0.8-1.8-2.6c-0.2-0.7-0.2-1.2,0.2-0.8c-0.3-0.4-0.6-0.8-0.9-1.2
							c-0.2-0.4,0.1-0.4,0.3,0c-0.4-0.7-0.7-1.4-1.2-2l0,0c-0.4-0.2-1-0.7-1.3-0.9c-0.1-0.6,0.3,0.2,0.3,0c-0.3-0.3-0.6-0.6-1-0.9
							c0-0.6,0.9,0,1.3,0.8c0.3-0.9,0-1.1-0.3-1.3c-0.4-0.3-0.9-0.7-1.4-1.9c0.3,0.3,0.6,0.6,0.9,0.9c0.1-1.1-0.6-1.7-1.2-3.1
							c0.1,0.4,0.8,3-0.3,2.1c-0.2-0.4-0.4-0.8-1.2-1.2c0.4-0.3-0.2-0.8-0.9-1.5l0.5-0.4c-0.8-0.6-1-0.3-1.6-0.5
							c-0.7-0.8-0.6-1.3-0.5-1.8c-1.3-1.3,0.4,1.4-1.3,0.1c-1-1.1-2-1.6-3.6-2.2c-0.7-0.8,0.4-0.2,0.2-0.6c-0.3,0-0.7,0-1-0.1
							c-0.2-0.1,0-0.2,0-0.3c-0.7-0.2-0.4,0.5-1.5,0c-0.6,0.5-1.6-2.1-3.3-2c-0.2-0.3,0.3-0.3,0.3-0.5c-2-0.4-1.7-0.4-3.5-0.4
							l-1.1-0.9c0.8,0.8-0.6,0.9-1.8,0.9c0.3,0.3,0.5,0.6,0.6,0.8c-0.6-0.1-1.2-0.2-1.8-0.3c-0.2-0.2,0.1-0.3,0.4-0.5
							c-0.1,0-0.3,0-0.4,0c-0.5-0.4-0.1-0.7,0.4-0.9c0.2,0.2,0.3,0.4,0.5,0.6c0.5-0.2,1.1-0.5,1.1-0.9c-0.1,0-0.4,0-0.6,0
							c0.1-0.1,0.2-0.1,0.2-0.2c0-0.1-0.3,0-0.6,0l-0.2-0.8l-0.2,0.2c-0.7-0.4-1.4-0.8-2.1-1.1c-1.8,0.2-3.5,0.9-6.1,0.6
							c0.7-0.4,0.3-0.8,0.5-1.4c0.6,0.8,2.1,0.1,3.4,0.7c-0.7-0.3-0.5-0.5-0.3-0.5c-0.9,0-1.7,0-2.6,0c0.2-0.5-0.4-0.5-1-0.8
							c0.3,1.1-1.9,0.3-3,0.5c0-0.3,0.3-0.7,1.5-0.4c-1.2-1-1.9,0.9-3.1,0c0.3,0,0.4,0.1,0.6,0c-0.7,0.2-2.4-0.2-2-0.5l0.3,0
							c-2-0.4-6-0.6-6.4,0.3c0-0.1,0.3-1,0.4-1.2c-1.2,0.9-2.4,1.8-3.6,2.7c0.3-0.7-0.8-2.5,0.8-2.9c-0.5-0.1-1.1-0.3-2.1,0
							c0.3,0.1,0.8,1.1,0.3,1.1c-1.2-0.8-0.8-0.5-2.3-1.1c0.5,0.2-0.1,1.3-0.8,1.3c0.1-0.2-0.1-1.1,0.2-1.2l-1.9,1.1
							c0.5-0.2,0.1-1-0.3-1.3c0.2,0.2-1.6,0-2.1,0.1l0.8,0.3c-2.1-0.2-2.1,1.6-4.2,1.5c0.3-0.2,0.6-1.4-0.4-1.6
							c-0.5,0.6-2.2,2.8-4,3.2l-0.4-0.3l-1.4,0.4c0.9-0.9,3.4-2.7,4.7-3.4c-0.8-0.3-0.2-0.4-1.4-0.4c-0.4-0.3,0.6-0.5,1-0.5
							l-2.8-0.2c0.1,0.7-2.1,0.7-2,1.2l3-0.7c0.1,0.7-1.7,1.9-3.7,1.8c-0.5-0.3,0.4-1.2,0.3-1.4c-0.3,0.2-1.8,0.4-2.1,0.3
							c0.4-0.1,0.6-0.2,0.9-0.4c-0.3-0.1-0.5,0-0.8,0c-0.4,0.1-0.7,0.2-1,0.2c-0.7,0.2-1.3,0.3-2.4,0c-0.3,0-1-0.2-1.6-0.4
							c-0.3-0.1-0.6-0.1-0.8-0.2c-0.1,0-0.2,0-0.1,0.1c0,0.1,0,0.1,0.1,0.2c0.1,0,0.1-0.1,0.2,0c0.1,0.1,0.2,0.1,0.4,0.2
							c0.2,0.1,0.5,0.3,0.7,0.5c0.4,0.3,0.9,0.7,1.2,1.1c0.7,0.8,1.2,1.5,1.3,1.8c0,0-0.1,0-0.1,0c0,0-0.1,0-0.1,0c0,0,0,0-0.1,0.1
							c-0.1,0.1-0.2,0.2-0.3,0.4c-0.2,0.3-0.5,0.8-0.6,1c-0.3,0.3-0.7-0.1-1-0.6c-0.3-0.5-0.7-1.1-0.9-0.8c0.2,0.1,0.4,0.8,0.5,1
							c-0.2,0.6-0.6-0.5-0.5,1.1c0.2,0.1,0.3,0.3,0.3,0.5c0,0.2,0,0.4,0,0.5c0,0.3,0,0.4,0.3-0.4c0.2,1-0.1,1.1-0.1,2.3
							c0.4-0.4,1.5,1.1,1.7,2.1c-0.2-0.1-0.4,0.2-0.5,0.3c-0.1,2.1-0.4,3.2-0.4,5.1c-0.2,0.2-0.4,1.1-0.7,0.7
							c0.1,0.3,0.4,0.5,0.4,1.1c-0.6,1.1-0.1-1.3-0.8-0.4c0.4,0.1,0.5,1.5,0.8,2.4c0.6-0.3,0.1-2-0.1-2.8c0.8,0,1.7,1.5,2.1,3.5
							c0.2,1.6-0.5,0.7-0.4,1c-0.1,3,1.5,2.6,0.9,5.1c-0.5,1-1.1,0-1.5,0.3c-0.2-1.3,0.3-2,0.3-2.9l-0.3,1.1
							c-0.2-0.4-0.3-1.3-0.2-1.8c-0.5,0.8-0.1,5.1-0.5,7.4c0.2,0.4,0.4,1.1,0.6,0.8l-0.1-0.7c0.4-0.7,0.6,1.4,0.8,0.5
							c0.3,1,0.8,2.1,0.5,3.5l-0.6,0.3c0.2,0,0.4-0.9,0.2-1.3c0.3,0.6-0.8,2.1,0,2.8l0.4-1c0.3,1,1,2.2,0.8,3.4
							c0.6-0.6-0.1-0.3,0.6-1.2c-0.9,0.8,0-3.1-0.9-1.9c0.8-0.9,0.3-1.5,1-2.7c-0.2,0-0.4,0.4-0.3-0.6c-0.1,0-0.1-0.2-0.2-0.2
							c0,0,0,0,0-0.1l0,0.1c0,0,0,0,0,0c-0.1,0.2-0.2,0.4-0.3,0.5c-0.5-0.5-0.4-2.1-0.7-2.7c0.1-0.6,0.2,0.3,0.4-0.1l-0.4-0.8
							c0.4-0.1,0.7-1.6,1-0.2l0-1.3c0.3-0.8,0.4-1.8,0.2-2.5c0.1-0.6-0.5-1.5-0.1-1l-0.3-2l0.1,0c0.1-2-0.7-4.1,0.1-6.4
							c-0.1-0.7-0.3-1.4-0.1-2.5l0.4-0.2c-0.1-0.9,0.4-2.6,0-3c0.5-0.5,0.6-1.5,0.5-2.6c0-1.5-0.3-1.3-0.3-1.5l-0.5-0.3
							c0-0.2,0-0.3-0.1-0.5c-0.1-0.2,0-0.1,0.1-0.2c0.1,0,0.2-0.1,0.2-0.1l-0.3-0.4c0.2-0.2,0.7-0.1,1,0l0.1,0l0.2,0l0.3,0
							c0.2,0,0.4,0.1,0.6,0.1c0.4,0.1,0.9,0.1,1.3,0.1c-0.1,0.2-0.6,0.1-0.9,0c2.1,1,4.5-0.7,6.4,0c0.5-0.2,0.8-0.1,1.2,0
							c0,0-0.1,0-0.1,0c0,0,0.1,0,0.2,0c0.2,0.1,0.4,0.2,0.7,0.2c-0.2-0.1-0.4-0.2-0.6-0.2c0.4,0,0.9-0.1,1.5-0.2l0.2,0.5
							c0,0,0.1,0,0.1,0c0.5,0.2,0.4-0.2,0.1-0.6c0.3-0.1,0.5-0.2,0.7-0.3c0.4,0.8,1.4-0.3,2,0.6c0.4-0.4,2.8-0.3,3.1-1.2
							c0,0.1,0.2,0.2-0.1,0.2c0.6,0.1,1.2,0.2,1.8,0l0.3,0.6l1.3-0.8c0.8,0.4,1.1,0.6,0.3,1.1c1.9-0.6,1.6-0.2,3.2-0.8l-0.1,0.4
							c0.6,0,1.6-0.4,1.9-0.1c0.6,0.4,2.2,0.6,4.1,0.8c1.8,0.2,3.9,0.6,5.5,1.3c-0.4-1.3,1.4,0.8,1.7,0c0.1,0.3,0.5,0.6,0,0.7
							c1.7,0.1,2.3,1,3.6,0.6c0.1,0.3-0.5,0.3-0.3,0.5c0.1,0,0.6-0.1,0.7,0.1c0.1,0.2-0.3,0.2-0.6,0.2c1.6,0.4,2.1-0.3,2.4-1
							c0.7,0.6,1.1,0.7,1.9,0.5c0.2,0.4,0.6,0.8-0.5,0.5c0.3,0.1,1.1,0.5,1.9,0.9c0.8,0.3,1.5,0.6,1.7,0.3c0.1,0.2,0.8,0.4,0.9,0.4
							c1.2,0.6,1.3,0.7,2.5,1.3l-0.3-0.3c0.8-0.4,1.1,0.4,2,0.9l-0.1,0.1c1.8,1.8,1.1,0.3,2.7,2.2l0.2-0.5c0.4-0.4,0.7,0.1,1.1,0.7
							c0.4,0.6,0.8,1.4,1.5,1.7l-0.2-0.5c0.4,0.1,0.6,0.7,0.7,1.4c0.1,0.7,0.1,1.4,0.3,1.7c0,0.2-0.3-0.1-0.5-0.2
							c0.9,1.8,0.6-0.3,1.7,0.7c-0.1,0.4-0.9,0.3-0.3,1.1c0.1,0.5,2.6,1.5,2.8,3c0.1-0.4,0.1-0.8,0.7-0.3c0.3,0.4,0.5,1.2,0.7,1.8
							c0.2,0.7,0.4,1.3,1,1.6c0,0.1,0,0.2-0.1,0.3c0.5,0.6,1.3,2.2,1.9,2.6c-0.3,0.3-0.3,0.7-0.2,1.2c0.1,0.5,0.4,1,0.6,1.6
							c0.5,1.1,0.9,2.1,0.2,2.2c0.2,0.8,0.3,1.6,0.5,2.4l-0.2,0c0.1,1.6,0.5,2.1,0.9,2.6c-0.1,0.4-0.2,0.1-0.3,0.1
							c-0.1,1.2-0.2,1.8-0.1,2.4c0.1,0.6,0.2,1.1,0.6,2.1l-0.5,0.2c0.3,0.6-1,3.3-0.8,5.6c-0.1,0-0.1-0.1-0.2-0.3
							c0,0.6-0.1,1.3-0.3,2c-0.2,0.7-0.6,1.3-0.8,1.9c-0.6,1.2-0.9,2.2-0.3,2.9l-0.2,1.7c1-2,0.6,0.6,1.2-0.1
							c-0.2,0.9-1.5,1.8-1.1,0.8l0.2-0.1c-0.3-0.4-0.7,0.2-1.1,0.8c-0.4,0.6-0.8,1.3-1,1.1c-1.1,1.8-2.4,3.5-3.9,4.9
							c-1.5,1.4-3.1,2.7-4.7,3.8l0.8,0.3c-0.4,0.3-0.7,0.6-1.2,0.8c-0.4,0.1-0.7-0.2,0.1-0.7c-0.7,0-1.2,1.2-1.1,1.4
							c-1.8,0.8,0.2-1.1-0.3-0.8c-0.2,0.2-0.4,0.3-0.6,0.5l0.2,0c-0.4,0.6-0.3,0.9-1.3,1.5c-0.7,0.2-0.6-0.2-0.8-0.1
							c0,0-0.1,0-0.4,0.2c-0.5,0.3-1,0.5-1.6,0.7l0.9,0.2c-0.6,0.6-1.5,0.7-0.5,0.9c-0.8-0.2-2.3,0.4-3.8,1c-1.5,0.6-3,1.1-3.4,1.1
							c-0.9,0.7-2,1-3.4,1.3c0.4,0,0.7,0.6-0.5,0.8c0.1-1.4-2.3-0.1-3.4-0.8c1,0.5-3.3,0.7-1.8,1.4c-1,0-0.1-0.5-0.9-0.7
							c-2.3,0.8-5.1,0.5-8,1c0,0.2,0.5,0.3-0.1,0.6l-1.6-0.6c-0.6,0.1-0.5,0.9-1.6,0.5c0.2,0.1,0.4,0.3,0,0.3
							c-2.9-0.1-5.8,0.1-8.8,0.3c-3,0.1-6,0.1-8.9-0.1c0.8,0.1,0.3,0.1-0.3,0.1c0.4,0,0,0.1,0.1,0.2l-2.5-0.2
							c-0.5,0.1-2.6-0.1-2.9-0.1l0.8,0.1c-1-0.1,1.4,0.3,1.3,0.4c0.6,0,1.3,0.2,2.2,0.3c0.9,0.2,1.8,0.4,2.8,0.3
							c0.4,0.1-0.4,0.1-0.1,0.1c0.5-0.1,1.1,0,2.2,0.1l-0.1,0c3.1,0.2,4.4,0.5,7.8,0.9l-0.3-0.3c0.7,0.1,0.9,0.2,1.2,0.3
							c0.9-0.4-2.1-0.2-1.3-0.6c0.5,0.3,1.8,0.4,3,0.5c1.3,0.1,2.5,0.1,2.8,0.6c1.2,0.1-0.3-0.4,0.8-0.4l0.3,0.2l0.3-0.3
							c0.8,0.1,1.1,0.4,1.2,0.6c-0.2,0-0.5,0-0.7,0.1c1,0.3,2.8,0,3.1,0.1l-1.1-0.2c3.1-0.2,7.1,0.1,10-1.2l-0.3-0.2
							c2.2-0.8,1.9-0.1,4.3-0.8l-0.1,0.1c0.5-0.3,1.1-0.6,1.8-0.7c-0.6,0.4,1.3,0.2,0.6,0.7c2.3-1.1,1.1-0.7,2.5-1.9l0.5,0.2
							c0.4-0.5,0.4-0.7,1.6-1.2c-0.9,0.6,1,0.3,0,1c2.9-0.1,3.4-2.2,5.1-1.6c0.7-1.4-2.4,0.4-1.8-0.1c-0.7-0.1,0.6-1.1,1.4-1.3
							c0.8-0.4,1.9,0.6,3.8-0.5c-0.2,0.1-0.2,0.2-0.4,0.3c0.9-0.1,1.2-1.1,2.3-1.3c0.2-0.8,1.1-0.7,0.8-1.4c-0.5,0.4-1,0.8-1.6,1.2
							c0.9-0.8,1.2-2.1,3-2.8c0,0.2-0.3,0.7-0.6,1c0.6-0.1,0.7-0.8,1.3-0.9c0.2,0.4-0.3,0.8-0.9,1.2c-0.6,0.4-1.3,0.9-1.7,1.5
							c0.7,0,1.6-1.8,1.6-0.7c0.1-0.7,0.5-1,1.1-1.3c0.5-0.3,1.2-0.7,1.5-1.5l0.2,0.4c0.1-0.2,0.4-0.7,0.7-1l-0.2,1
							c0.6-1.2,2.1-1.3,2.7-2.3c-1.8,1.8-0.8,0-1.8,0.5c0.9-1.3,1.4-1.4,1.9-1.5c0.6-0.1,1.3-0.2,2.3-1.7c-0.2,0.4-1.3,1.2-1,0.5
							c0.5-0.5,1.2-1,1.6-1.2c1.2-2-0.6,0-0.3-1c0.9-0.3,0.5-1,0.8-2l0.4,0.2c1.6-2.1-0.5-1.1,0.9-2.9l0.2,1.2l0.4-1.2l0.4,0.5
							c0.2-1.4,0.4-1.7,1.1-2.8c-0.4,0.1-0.7-0.5-0.4-1.5c0.5-0.6,0.3,0.6,0.7-1c0.2,0.4,0.4,0.9-0.2,1.5c0.1,0.1,0.2,0.4,0.3,0.6
							c0.6-0.7,0.8-2,0.9-2.6c-0.1,0.2-0.2,0.5-0.3,0.6c0-0.8,0-1.6,0-2.4c0.3-0.3,0.3,0,0.4,0.3c0.1-0.5-0.1-0.8,0-1.5
							c0.3,0.3,0.8,0.3,0.7,1.3l0-2.3c0.2-0.1,0.7-1.1,0.8-0.7c0.2-0.6,0.1-1.4,0.1-2.2c-0.1-0.8-0.2-1.7,0-2.5
							c-0.1-0.1-0.1-0.3-0.2-0.6c0.1-0.8,0.2-1.5,0.3-2.2c0.1-0.8,0-1.6-0.3-2.5c0.2-0.4,0.4-0.7,0.6-1.1c-0.3-1.4-0.8,1.4-1.2-0.9
							c-0.4-1.6,0.5-0.7,0.7-1.3c-0.5-0.8-1.3-2.1-1.1-3.7C346,306.9,346,307.3,346.1,307.8z M338.8,291.8c0.3,0.2,1,0.6,0.9,0.9
							C339,292.7,339,292.4,338.8,291.8z M316.4,278.8c0.3-0.1,0.6,0.1,1,0.4C317.1,279.2,316.7,279,316.4,278.8z M272.8,300.8
							C272.8,300.8,272.8,300.8,272.8,300.8C272.9,300,272.9,300.3,272.8,300.8z M272.6,302.3c0.1,0.1,0.1,0.1,0.2,0.1
							c-0.1-0.1-0.1-0.4-0.1-0.8C272.5,301.7,272.5,301.8,272.6,302.3z M325,345.9l0.3,0C324.8,346.3,324.9,346.1,325,345.9z"/>
						<path class="st1" d="M319.4,279.1c0.1,0.1,0.1,0.2,0,0.3C319.6,279.4,319.6,279.3,319.4,279.1z"/>
						<path class="st1" d="M346.9,318.6L346.9,318.6c0,0.1,0,0.1,0.1,0.1L346.9,318.6z"/>
						<path class="st1" d="M268.5,278.6c0.1-0.4,0.2-0.7,0.2-0.8C268.6,277.7,268.5,277.9,268.5,278.6z"/>
						<path class="st1" d="M273.4,310.2l-0.1-1c0,0.5-0.1,0.6-0.2,0.9C273.2,310.1,273.4,309.9,273.4,310.2z"/>
						<path class="st1" d="M270.4,318.5c0.1,0.1,0,0.3,0.1,0.4l0.2,0C270.7,318.3,270.5,317.8,270.4,318.5z"/>
						<path class="st1" d="M271.8,311.1c-0.4,0.1-0.3,0.7-0.2,1.3c0,0,0-0.1,0-0.1C272.2,312.5,272,311.8,271.8,311.1z"/>
						<path class="st1" d="M271.6,312.6c0,0.2,0,0.4,0,0.6C271.8,313.3,271.7,312.9,271.6,312.6z"/>
						<path class="st1" d="M272.8,304.2c-0.1,0.3,0.5,0.2,0.4,0.4C273.7,304.9,272.6,302.4,272.8,304.2z"/>
						<polygon class="st1" points="270.4,311.6 270.9,311.4 270.5,311 						"/>
						<path class="st1" d="M270.8,306.3l-0.1,1.1c0.1,0,0.1,0.1,0.2,0.3C270.9,307,271,306.3,270.8,306.3z"/>
						<path class="st1" d="M270.8,307.7c0,0.3,0,0.7,0.1,0.9C270.9,308.4,270.9,308,270.8,307.7z"/>
						<polygon class="st1" points="270.3,310.1 270.4,309.8 270.4,309.1 						"/>
						<path class="st1" d="M270.9,294.9l-0.1-1.2c-0.2-0.1-0.3,0.2-0.2,0.6C270.7,294.6,270.7,295,270.9,294.9z"/>
						<path class="st1" d="M269.5,298.4c0.1-0.3,0.2-0.3,0.4-0.5l-0.6,0L269.5,298.4z"/>
						<path class="st1" d="M269.4,295c-0.2-0.1-0.5-1.7-0.5-0.2C269.1,294.9,269.3,296,269.4,295z"/>
						<path class="st1" d="M270.2,277.2l0,0.3l1,0.7C270.8,277.9,270.5,277.6,270.2,277.2z"/>
						<path class="st1" d="M285,273.8c-1.4-0.2-0.3,0.6-1.6,0.3c-0.3,0.2,1,0.2,0.7,0.5C285,274.3,285.4,274.5,285,273.8z"/>
						<path class="st1" d="M284.1,274.6c-0.1,0-0.3,0.1-0.4,0.2C283.9,274.7,284,274.6,284.1,274.6z"/>
						<polygon class="st1" points="272.9,353.7 272,353.7 272.6,353.7 						"/>
						<path class="st1" d="M271.2,353.7l-0.2,0l-0.5,0C270.6,353.6,271,353.7,271.2,353.7z"/>
						<path class="st1" d="M338,288.9l-0.2,0c0,0.2,0.1,0.4,0.4,0.8L338,288.9z"/>
						<polygon class="st1" points="344.6,300.3 344.5,300.1 344.1,300.7 						"/>
						<path class="st1" d="M347.8,310.9c0-0.5-0.2-1-0.2-1.4C347.8,310.4,347,311.1,347.8,310.9z"/>
					</g>
				</g>
			</g>
			<g>
				<g>
					<g>
						<path class="st1" d="M270.5,256.4c0,0.2,0,0.2,0,0.3C270.5,256.1,270.5,256.4,270.5,256.4z"/>
						<polygon class="st1" points="270.8,250.7 270.8,250.8 270.8,249.9 						"/>
						<path class="st1" d="M271.1,245.2c-0.3,0.5,0,2-0.2,2.9l-0.1,0.2l0.2,0.4C271,247.6,271,246.1,271.1,245.2z"/>
						<path class="st1" d="M272,242.4c-0.2,0.2-0.1-0.6-0.1,0.7c0-0.1,0-0.1,0-0.1C272,242.8,272,242.6,272,242.4z"/>
						<path class="st1" d="M272,242.9C271.9,243.5,272.1,242.5,272,242.9L272,242.9z"/>
						<path class="st1" d="M272.1,240.3l0.1,0.7c0.1-0.2,0.2-0.8,0.2-0.6C272.5,239.7,272.3,239.9,272.1,240.3z"/>
						<path class="st1" d="M271.9,239.6l0,0.4C272,239.9,272,239.8,271.9,239.6z"/>
						<path class="st1" d="M272,240.8l-0.1-0.8c-0.1,0.1-0.2,0.1,0,0.4C271.8,240.3,271.9,240.4,272,240.8z"/>
						<path class="st1" d="M271.9,241.3c-0.1,0.4-0.2,1-0.3,0.2C271.5,242.9,271.8,242.7,271.9,241.3z"/>
						<path class="st1" d="M270.8,245l-0.1,0.6l0.1,0.5C270.7,245.8,270.9,244.9,270.8,245z"/>
						<path class="st1" d="M272.8,235.6c-0.1,0-0.3,0.3-0.5,0.3l0.1,0.6C272.5,236.2,272.7,235.7,272.8,235.6z"/>
						<path class="st1" d="M272.4,235.9l-0.1-0.8C272.2,235.8,272.2,236,272.4,235.9z"/>
						<path class="st1" d="M271.4,239.4c0.1,0.5,0.2,0.9,0.2,1.4c-0.1-0.5-0.1-1.1-0.2-1.6L271.4,239.4z"/>
						<polygon class="st1" points="273.2,232.5 273.4,232.9 273,232.1 						"/>
						<path class="st1" d="M273.3,230.4c0.2,0.3,0.5-0.5,0.6-0.1c0-0.6-0.2-1.1-0.3-1.5C273.7,229.2,273.6,229.7,273.3,230.4z"/>
						<path class="st1" d="M273.4,228c0,0.2,0.1,0.5,0.2,0.7C273.6,228.5,273.5,228.3,273.4,228z"/>
						<path class="st1" d="M272.4,233.7c0.1-0.1,0.3-0.2,0.4-0.7l-0.4,0.3C272.4,233.5,272.4,233.6,272.4,233.7z"/>
						<path class="st1" d="M272.4,233.4L272.4,233.4c0-0.4,0.1-0.6,0.1-0.7C272.5,232.8,272.5,233,272.4,233.4z"/>
						<path class="st1" d="M272.4,233.8C272.4,233.7,272.4,233.7,272.4,233.8C272.4,233.7,272.4,233.7,272.4,233.8z"/>
						<path class="st1" d="M271.8,237.3c-0.1-0.5-0.3-1.5-0.6-0.5C271.4,237.1,271.6,236.5,271.8,237.3z"/>
						<path class="st1" d="M271.9,234.2l-0.1,0.9c0.1,0,0.2-0.2,0.3,0.1L271.9,234.2z"/>
						<polygon class="st1" points="271.9,233.7 271.9,234.2 272,233.9 						"/>
						<path class="st1" d="M272.9,229.5c-0.1-0.4-0.1-0.8-0.1-1.3c-0.1,0.5-0.2,1-0.2,1.5C272.6,229.9,272.8,230.1,272.9,229.5z"/>
						<path class="st1" d="M272.6,231.4C272.6,231.4,272.6,231.3,272.6,231.4C272.6,231.4,272.5,231.4,272.6,231.4z"/>
						<polygon class="st1" points="272.8,223.6 272.8,223.7 272.8,223.7 						"/>
						<path class="st1" d="M272.4,229.9c-0.1,0.4,0,0.6,0.1,0.8C272.5,230.4,272.5,230.1,272.4,229.9
							C272.5,229.8,272.4,229.7,272.4,229.9z"/>
						<path class="st1" d="M273.3,226.7c-0.1,0.2-0.2,0.4-0.3,0.7C273.1,227.2,273.4,226.8,273.3,226.7z"/>
						<path class="st1" d="M272.7,231.2L272.7,231.2C272.8,231.1,272.8,231.1,272.7,231.2z"/>
						<path class="st1" d="M272.7,231.2c0-0.2-0.1-0.3-0.2-0.5c0,0.2,0,0.4,0.1,0.6C272.6,231.3,272.7,231.2,272.7,231.2z"/>
						<path class="st1" d="M270.1,222.2c0.4,0.1,0.8,1.1,0.3,1.9c0.3,0.8,1.6,0.3,2.3-0.4c-0.2,0-0.3,0-0.6-0.9
							c-0.2,0.3-0.5,1.9-0.9,1.2c-0.2-1.2,0.1-0.9,0.3-1.5c-0.5,0.5-0.7-1.5-1.4-1.2l0.3,1C270.4,222.3,270.2,222,270.1,222.2z"/>
						<path class="st1" d="M272.8,225.4l0,0.4c0.1-0.4,0.2-0.7,0.5-1.2c-0.2-0.6-0.4-0.7-0.5-0.8c0,0.6,0,1.2,0,1.8L272.8,225.4z"/>
						<path class="st1" d="M272.7,227.3c-0.4-0.3-0.6-1.1-1.1-0.6c0,1,0.3,0.7,0.5,1.4C272.2,226.4,272.4,228.6,272.7,227.3
							c0,0.3,0,0.6,0,0.9c0.1-0.3,0.2-0.6,0.3-0.9c0,0,0,0,0,0l0,0l0,0c-0.1,0.1-0.1,0.1-0.1,0c0,0,0,0,0,0
							C272.8,227.4,272.8,227.4,272.7,227.3c0.1-0.5,0.1-0.1,0.2,0.1c0,0,0,0,0.1,0l0,0c0-0.6-0.1-1.1-0.2-1.7
							C272.7,226.1,272.7,226.5,272.7,227.3z"/>
						<path class="st1" d="M270.5,235.9C270.6,235.8,270.6,235.8,270.5,235.9C270.6,235.7,270.6,235.6,270.5,235.9z"/>
						<path class="st1" d="M270.7,235.2c0,0.1,0.2,0.2,0.1,0.6c-0.1,0.3-0.2,0-0.3,0c0.1,0.2,0.2,0.8,0.4,0.1l0-0.1
							c0.1-0.7,0.6-1.6,0.6-1.4C271.3,234.5,271,234.7,270.7,235.2z"/>
						<path class="st1" d="M271.5,231.2l-0.1-1.4l-0.4,0.7l0.2,0C271.1,231.3,271.4,231.1,271.5,231.2z"/>
						<polygon class="st1" points="273,223.5 273.5,223.7 272.8,222.9 						"/>
						<polygon class="st1" points="273,221.6 273.4,221.7 273.1,221.2 						"/>
						<path class="st1" d="M338.2,209.7l0.3,0.4C338.3,209.9,338.2,209.8,338.2,209.7z"/>
						<path class="st1" d="M336.9,206.7l-0.2,0C336.9,206.8,337,206.8,336.9,206.7z"/>
						<path class="st1" d="M285.5,192.5c0.6,0.3,1.3,0.9,1.2,0.5l-0.2-0.4C286.1,192.6,285.8,192.5,285.5,192.5z"/>
						<path class="st1" d="M316,192.7c0-0.1-0.1-0.1-0.1-0.2c-0.2,0.1-0.4,0.2-0.5,0.3C315.6,192.8,315.8,192.8,316,192.7z"/>
						<path class="st1" d="M317,191.2l0.7,0.5C317.5,191.6,317.3,191.4,317,191.2z"/>
						<path class="st1" d="M340.5,227l0.4,0.6C341,226.7,340.7,227.1,340.5,227z"/>
						<path class="st1" d="M272.8,202.8c0.2-0.5,0.2-0.9,0.3-1.3C272.8,202.2,272.5,202.7,272.8,202.8z"/>
						<path class="st1" d="M333.4,210.2c0.2,0.2,0.3,0.3,0.4,0.2C333.7,210.2,333.5,210.2,333.4,210.2z"/>
						<path class="st1" d="M273.1,200c0,0.1-0.1,0.2-0.1,0.3c0.1,0.4,0.1,0.8,0.1,1.2C273.3,201.1,273.4,200.5,273.1,200z"/>
						<path class="st1" d="M292.8,258.7c0,0-0.1,0-0.1-0.1C292.7,258.7,292.7,258.7,292.8,258.7z"/>
						<path class="st1" d="M275.5,256.3c0.2,0,0.4,0,0.7-0.1C276.1,256.3,275.9,256.3,275.5,256.3z"/>
						<path class="st1" d="M273.2,214.3C273.2,214.6,273.2,214.3,273.2,214.3L273.2,214.3z"/>
						<path class="st1" d="M271.5,216.1c0-0.1-0.1-0.1-0.2-0.2C271.3,216,271.4,216.1,271.5,216.1z"/>
						<path class="st1" d="M270.4,196.1C270.4,196.1,270.4,196.1,270.4,196.1C270.3,196.2,270.3,196.2,270.4,196.1z"/>
						<path class="st1" d="M273,214.8c0.1-0.1,0.1-0.3,0.1-0.5C273.1,214.4,273,214.6,273,214.8z"/>
						<path class="st1" d="M273.2,214.8c0,0.1,0,0.2,0,0.3C273.2,215.2,273.3,215.1,273.2,214.8z"/>
						<path class="st1" d="M273.1,213.7c0,0.2,0,0.4,0,0.6c0-0.1,0.1-0.1,0.1-0.1C273.2,214.1,273.2,214,273.1,213.7z"/>
						<path class="st1" d="M324.1,250.3C324.1,250.3,324,250.3,324.1,250.3C323.8,250.7,323.9,250.6,324.1,250.3z"/>
						<path class="st1" d="M295.6,187.8C295.6,187.8,295.5,187.8,295.6,187.8C295.5,187.8,295.6,187.8,295.6,187.8L295.6,187.8z"/>
						<path class="st1" d="M297,187.5c-0.6,0.5-1,0.4-1.4,0.3l0.4,1.3L297,187.5z"/>
						<path class="st1" d="M340.1,217.2l0.3-1.1c0.8,1.2,0.7,2.2,1.1,1.1c-0.7,0-0.8-1-1.1-2c-0.2-1-0.5-2-1.2-1.9l0.1-0.7
							c0,0.2,0.1,0.2,0.2,0.4c0.3-1.5-1.2-0.7-1.5-2.4c-0.1-0.6-0.1-1.1,0.2-0.7l-0.8-1.1c-0.1-0.4,0.1-0.4,0.3,0
							c-0.3-0.6-0.6-1.2-1-1.8l0,0c-0.3-0.2-0.9-0.6-1.2-0.8c-0.1-0.6,0.2,0.2,0.3,0c-0.3-0.3-0.5-0.6-0.8-0.8
							c0.1-0.6,0.9,0,1.2,0.8c0.7-1.6-0.7-0.7-1.4-3c0.3,0.3,0.5,0.5,0.8,0.8c0.3-1-0.5-1.6-0.9-2.9c0,0.4,0.5,2.8-0.5,1.9
							c-0.1-0.3-0.4-0.8-1-1.1c0.4-0.3-0.1-0.8-0.7-1.4l0.5-0.4c-0.8-0.5-1-0.3-1.5-0.4c-0.7-0.7-0.5-1.2-0.4-1.7
							c-1.1-1.2,0.3,1.3-1.2,0.1c-0.4-0.5-0.9-0.9-1.4-1.2c-0.5-0.3-1.1-0.5-1.9-0.8c-0.6-0.7,0.4-0.2,0.2-0.6l-1,0
							c-0.2-0.1,0-0.2,0-0.3c-0.7-0.2-0.4,0.5-1.4,0.1c-0.3,0.2-0.6-0.2-1.1-0.8c-0.5-0.5-1.1-1.1-1.8-1c-0.2-0.3,0.3-0.3,0.3-0.6
							c-1.9-0.2-1.6-0.3-3.2-0.2c-0.3-0.3-0.7-0.6-1-0.8c0.7,0.7-0.6,0.9-1.7,1c0.2,0.3,0.4,0.6,0.5,0.7c-0.5-0.1-1-0.1-1.6-0.2
							c-0.1-0.2,0.1-0.3,0.4-0.5c-0.1,0-0.2,0-0.3,0.1c-0.5-0.4-0.1-0.7,0.4-0.9c0.1,0.2,0.3,0.4,0.4,0.5c0.5-0.2,1-0.5,1-0.9
							c-0.1,0-0.3,0-0.6,0c0.1-0.1,0.2-0.1,0.2-0.2c0-0.1-0.2,0-0.5,0.1l-0.1-0.8l-0.2,0.2c-0.6-0.3-1.3-0.7-1.9-1
							c-1.7,0.3-3.1,1-5.5,0.9c0.7-0.4,0.3-0.8,0.4-1.4c0.5,0.7,1.9,0.1,3.1,0.5c-0.6-0.2-0.4-0.5-0.2-0.5c-0.8,0-1.5,0.1-2.3,0.1
							c0.1-0.5-0.4-0.5-0.9-0.8c0.3,1-1.7,0.4-2.7,0.6c0-0.3,0.2-0.7,1.3-0.4c-1.1-0.9-1.7,0.9-2.8,0.2c0.3,0,0.4,0.1,0.5-0.1
							c-0.6,0.2-2.1-0.2-1.7-0.4l0.3,0c-1.7-0.3-5.4-0.4-5.6,0.5c0-0.1,0.3-1,0.4-1.2c-1.1,0.9-2.1,1.8-3.2,2.8
							c0.3-0.7-0.8-2.5,0.7-2.9c-0.4-0.1-0.9-0.2-1.8,0c0.3,0.1,0.7,1.1,0.3,1.1c-1.1-0.8-0.7-0.4-2-1.1c0.4,0.2,0,1.3-0.7,1.3
							c0.1-0.2-0.1-1.1,0.2-1.3l-1.7,1.1c0.4-0.2,0.1-1-0.3-1.3c0.2,0.2-1.4,0-1.9,0.1l0.7,0.2c-1.9-0.1-1.8,1.6-3.7,1.7
							c0.2-0.2,0.5-1.5-0.5-1.6c-0.4,0.6-1.8,2.9-3.4,3.4l-0.3-0.3l-1.2,0.5c0.7-0.9,2.8-2.9,3.9-3.7c-0.7-0.2-0.2-0.4-1.3-0.3
							c-0.4-0.3,0.6-0.5,0.9-0.5l-2.5,0c0.2,0.7-1.8,0.8-1.7,1.4l2.6-0.9c0.1,0.7-1.4,2-3.1,2.1c-0.5-0.2,0.2-1.2,0.2-1.4
							c-0.2,0.2-1.6,0.6-1.8,0.5l0.7-0.4c-1-0.1-1.5,1.1-2.7,0.6c-0.4,0-1.3-0.7-1.4-0.3c0.9,0.6,1.3,3,1,3.6c-0.1,0-0.5-0.1-1-0.3
							c-0.5-0.1-1.2-0.3-1.6-0.4c-0.5-0.2-0.6-0.6-0.5-0.9c0.1-0.4,0.3-0.7-0.3-0.9c0.1,0.2-0.3,0.5-0.4,0.6c-0.7,0-0.3-0.6-1.4-0.2
							c0.6,0.8-0.2,2.5,0.5,1c0.2,1.3-0.2,1.1-0.2,2.5c0.2-0.2,0.6,0.2,0.9,0.7c0.3,0.4,0.7,0.9,0.8,1.4c-0.2-0.1-0.4,0.1-0.5,0.2
							c-0.1,1.8-0.4,2.8-0.4,4.5c-0.2,0.2-0.4,1-0.7,0.6c0.1,0.2,0.4,0.5,0.4,1c-0.6,1-0.1-1.2-0.8-0.4c0.4,0.1,0.5,1.4,0.8,2.1
							c0.6-0.2,0.1-1.7-0.1-2.5c0.8,0,1.7,1.3,2.1,3.1c0.2,1.4-0.5,0.6-0.4,0.9c-0.1,2.7,1.5,2.3,0.9,4.5c-0.5,0.9-1.1,0-1.5,0.2
							c-0.2-1.2,0.3-1.8,0.3-2.6l-0.3,1c-0.2-0.4-0.3-1.1-0.2-1.6c-0.5,0.7-0.1,4.5-0.5,6.5c0.2,0.4,0.4,1,0.6,0.7l-0.1-0.6
							c0.4-0.6,0.6,1.2,0.8,0.4c0.3,0.9,0.8,1.8,0.5,3.1l-0.6,0.2c0.2,0,0.4-0.8,0.2-1.1c0.3,0.5-0.8,1.9,0,2.4l0.4-0.9
							c0.3,0.9,1,2,0.8,3c0.6-0.5-0.1-0.3,0.6-1c-0.9,0.7,0-2.8-0.9-1.7c0.8-0.8,0.3-1.4,1-2.4c-0.2,0-0.4,0.4-0.3-0.5
							c-0.1,0-0.1-0.1-0.2-0.2c0,0,0,0,0-0.1l0,0.1c0,0,0,0,0,0c-0.1,0.2-0.2,0.4-0.3,0.5c-0.5-0.5-0.4-1.9-0.7-2.4
							c0.1-0.5,0.2,0.2,0.4-0.1l-0.4-0.7c0.4-0.1,0.7-1.4,1-0.2l0-1.1c0.3-0.7,0.4-1.6,0.2-2.2c0.1-0.5-0.5-1.4-0.1-0.9l-0.3-1.8
							l0.1,0c0.1-1.8-0.7-3.7,0.1-5.7c-0.1-0.6-0.3-1.2-0.1-2.2l0.4-0.2c-0.1-0.8,0.4-2.3,0-2.6c0.1-0.1,0.2-0.2,0.3-0.4
							c0.1,0,0.1-0.1,0.1-0.1c0-0.1-0.1-0.1-0.1-0.2c0-0.1-0.1-0.2-0.1-0.3c0,0,0.1-0.1,0.2,0l-0.3-0.5c0.1,0,0.3-0.1,0.4-0.1
							c0,0,0.3-0.1,0.5-0.2c0.2-0.1,0.5-0.2,0.8-0.3l-0.1-0.4c0.9-0.5,2.5,0,4-0.2c-0.1,0.2-0.5,0.2-0.8,0.1
							c1.9,0.8,3.8-1.1,5.5-0.4c0.4-0.2,0.7-0.1,1,0c0,0-0.1,0-0.1,0c0,0,0.1,0,0.2,0c0.2,0.1,0.4,0.1,0.6,0.2
							c-0.2-0.1-0.4-0.2-0.5-0.2c0.3,0,0.8-0.1,1.3-0.2l0.2,0.5c0,0,0.1,0,0.1,0c0.5,0.2,0.4-0.2,0.1-0.6c0.2-0.1,0.5-0.2,0.6-0.3
							c0.4,0.8,1.3-0.3,1.8,0.5c0.3-0.4,2.4-0.3,2.7-1.2c0,0.1,0.2,0.2-0.1,0.2c0.5,0.1,1.1,0.2,1.6-0.1l0.2,0.6l1.2-0.8
							c0.7,0.4,1,0.6,0.3,1.1c1.7-0.7,1.4-0.2,2.9-0.9l-0.1,0.4c0.5,0,1.4-0.5,1.7-0.1c1.1,0.8,5.7,0.5,8.5,1.8
							c-0.4-1.2,1.2,0.7,1.5-0.1c0.1,0.3,0.5,0.5,0,0.7c1.5,0,2.1,0.9,3.2,0.4c0.1,0.3-0.4,0.3-0.3,0.5c0.1,0,0.5-0.1,0.6,0.1
							c0.1,0.2-0.3,0.2-0.5,0.2c1.4,0.3,1.8-0.4,2.2-1.2c0.6,0.6,1,0.7,1.7,0.3c0.2,0.3,0.5,0.7-0.4,0.5c0.5,0.2,2.9,1.5,3.2,0.9
							c0.1,0.2,0.7,0.3,0.8,0.3c1.1,0.5,1.1,0.6,2.2,1.1c-0.1-0.1-0.2-0.2-0.2-0.2c0.8-0.5,0.9,0.3,1.8,0.7l-0.1,0.1
							c1.5,1.6,1,0.2,2.3,2l0.2-0.5c0.4-0.4,0.7,0,1,0.6c0.3,0.6,0.7,1.3,1.2,1.5l-0.1-0.5c0.4,0.1,0.5,0.7,0.5,1.3
							c0,0.6,0,1.3,0.2,1.5c0,0.2-0.3-0.1-0.4-0.2c0.7,1.6,0.6-0.3,1.6,0.6c-0.1,0.4-0.8,0.3-0.4,1c0,0.2,0.6,0.6,1.2,1
							c0.6,0.4,1.2,1,1.2,1.7c0.1-0.3,0.2-0.7,0.7-0.3c0.6,0.8,0.2,2.6,1.3,3c0,0.1-0.1,0.2-0.1,0.2c0.2,0.3,0.5,0.8,0.8,1.2
							c0.3,0.5,0.6,0.9,0.8,1.1c-0.7,0.5-0.2,1.5,0.2,2.5c0.4,1,0.8,1.9,0,2c0.1,0.7,0.3,1.4,0.3,2.2l-0.2,0c0,1.4,0.4,1.9,0.8,2.4
							c-0.1,0.3-0.2,0.1-0.3,0.1c-0.1,1-0.2,1.6-0.2,2.1c0,0.5,0.2,1,0.6,1.9l-0.5,0.1c0.2,0.2-0.2,1-0.5,1.8
							c-0.2,0.4-0.3,0.9-0.4,1.4c-0.1,0.5-0.2,1-0.2,1.5c0,0-0.1-0.1-0.2-0.3c0,0.6-0.2,1.2-0.4,1.7c-0.2,0.6-0.6,1.1-0.9,1.6
							c-0.3,0.5-0.5,0.9-0.6,1.4c-0.1,0.4-0.1,0.8,0.2,1.2l-0.3,1.5c1.1-1.6,0.5,0.6,1.2,0.1c-0.3,0.8-1.4,1.5-1.1,0.6l0.1-0.1
							c-0.3-0.4-0.6,0.1-1.1,0.6c-0.4,0.5-0.8,1-1,0.8l-0.8,1.1c-0.3,0.4-0.6,0.7-1,1l-1,1l-0.5,0.5l-0.5,0.4
							c-0.7,0.6-1.4,1.1-2.1,1.7c-0.8,0.5-1.5,1-2.2,1.5l0.7,0.4c-0.3,0.2-0.7,0.5-1,0.7c-0.4,0-0.7-0.2,0.1-0.7
							c-0.6-0.1-1.1,1-1,1.2c-1.6,0.6,0.1-1.1-0.3-0.8l-0.6,0.4l0.2,0c-0.3,0.5-0.2,0.9-1.2,1.4c-0.7,0.2-0.5-0.2-0.8-0.1
							c0,0-0.1,0-0.4,0.1l-1.4,0.6l0.8,0.3c-0.5,0.5-1.4,0.6-0.4,0.9c-0.3-0.1-0.9,0-1.5,0.1c-0.6,0.1-1.3,0.3-2,0.6
							c-0.7,0.2-1.3,0.5-1.9,0.7c-0.5,0.2-1,0.2-1.1,0.2c-0.8,0.7-1.8,0.9-3,1.2c0.3,0,0.6,0.7-0.4,0.8c0.1-1.4-2-0.2-3-1
							c0.4,0.2-0.3,0.4-1,0.6c-0.7,0.1-1.3,0.3-0.6,0.7c-0.9,0-0.1-0.5-0.8-0.8c-1,0.3-2.1,0.4-3.3,0.5c-1.2,0-2.5,0-3.7,0.2
							c0,0.2,0.4,0.4-0.2,0.6l-1.4-0.6c-0.5,0.1-0.5,0.8-1.4,0.4c0.1,0.1,0.3,0.3,0,0.3c-2.6-0.2-5.2,0.1-7.8,0.3
							c-2.6,0.2-5.3,0.3-7.9,0.3c0.7,0,0.2,0.1-0.3,0.1c0.4,0,0,0.1,0.1,0.2c-0.7,0-1.5,0-2.2,0c-0.4,0.1-2.3,0.2-2.6,0.2l0.7,0
							c-0.9,0.1,1.3,0.1,1.2,0.2c0.5,0,1.2,0,2,0.1c0.8,0.1,1.6,0.2,2.5,0.1c0.4,0.1-0.3,0.1-0.1,0.1c0.4-0.1,0.9-0.1,1.9,0l-0.1,0
							c2.7,0.1,3.9,0.3,6.9,0.7l-0.2-0.3c0.7,0.1,0.8,0.2,1.1,0.3c0.7-0.4-1.8-0.1-1.1-0.6c0.9,0.6,4.6,0.2,5.2,1
							c1,0.1-0.3-0.4,0.7-0.4l0.3,0.2l0.3-0.3c0.7,0.1,1,0.4,1,0.6c-0.2,0-0.5,0-0.6,0c0.8,0.4,2.4,0.1,2.7,0.1l-1-0.2
							c1.4-0.1,3,0,4.5,0c1.6,0,3.1-0.3,4.4-0.7l-0.2-0.2c1-0.3,1.4-0.4,1.9-0.3c0.4,0,0.9,0,2-0.2l-0.1,0.1c0.4-0.3,1-0.5,1.6-0.6
							c-0.5,0.4,1.2,0.2,0.5,0.7c2.1-1,1-0.6,2.2-1.8l0.4,0.3c0.4-0.5,0.4-0.6,1.4-1c-0.8,0.6,0.9,0.3,0,1c1.3,0,2-0.5,2.7-0.9
							c0.6-0.4,1.1-0.7,1.9-0.4c0.3-0.7-0.2-0.6-0.8-0.4c-0.6,0.2-1.1,0.4-0.9,0.2c-0.6-0.2,0.6-1,1.3-1.2c0.7-0.3,1.7,0.7,3.5-0.2
							c-0.2,0.1-0.2,0.2-0.3,0.2c0.8,0,1.1-1,2.1-1.1c0.1-0.8,1-0.6,0.7-1.3l-1.4,1c0.4-0.3,0.7-0.8,1-1.3c0.4-0.5,0.9-0.9,1.6-1.2
							c0,0.2-0.3,0.7-0.5,1c0.5-0.1,0.7-0.7,1.2-0.8c0.2,0.4-0.2,0.7-0.8,1.1c-0.5,0.4-1.2,0.7-1.6,1.3c0.6,0,1.5-1.5,1.5-0.5
							c0.1-1.3,1.7-1,2.3-2.5l0.2,0.4c0.1-0.2,0.3-0.6,0.7-0.8l-0.2,0.9c0.3-0.5,0.8-0.8,1.2-1c0.5-0.2,1-0.5,1.3-0.9
							c-1.6,1.5-0.8-0.1-1.7,0.3c0.8-1.1,1.3-1.1,1.8-1.2c0.6,0,1.2-0.1,2.1-1.3c-0.2,0.4-1.3,1-1,0.3c0.5-0.4,1.1-0.8,1.5-0.9
							c1.3-1.6-0.6-0.1-0.2-0.9c0.9-0.1,0.4-0.9,0.8-1.7l0.4,0.3c1.6-1.7-0.4-1,1-2.5c0.1,0.4,0.1,0.7,0.1,1.1
							c0.2-0.3,0.3-0.7,0.4-1l0.4,0.5c0.2-1.2,0.5-1.5,1.2-2.5c-0.5,0.1-0.7-0.5-0.3-1.4c0.5-0.5,0.3,0.5,0.8-0.8
							c0.2,0.4,0.4,0.9-0.3,1.3c0.1,0.1,0.2,0.4,0.3,0.6c0.6-0.5,0.8-1.7,1-2.2c-0.1,0.2-0.2,0.4-0.3,0.5c0.1-0.7,0.1-1.5,0.1-2.2
							c0.3-0.3,0.3,0,0.4,0.3c0.1-0.4-0.1-0.8,0.1-1.4c0.3,0.3,0.7,0.3,0.7,1.3l0.1-2.1c0.2-0.1,0.7-0.9,0.8-0.6
							c0.3-0.5,0.2-1.3,0.1-2c-0.1-0.8-0.1-1.5,0.2-2.3c-0.1-0.1-0.1-0.2-0.1-0.6c0.1-1.4,0.8-2.6,0.2-4.2l0.7-0.9
							c-0.2-1.3-0.8,1.3-1.2-0.8c-0.3-1.5,0.6-0.6,0.7-1.1c-0.4-0.7-1.3-1.9-0.9-3.3C340,216.4,340,216.7,340.1,217.2z M334.2,202.6
							c0.3,0.2,0.9,0.5,0.8,0.9C334.3,203.5,334.4,203.1,334.2,202.6z M314.2,191.2c0.2-0.1,0.6,0.1,0.9,0.4
							C314.8,191.5,314.5,191.4,314.2,191.2z M272.8,210C272.8,210,272.8,210,272.8,210C272.9,209.3,272.9,209.5,272.8,210z
							 M272.6,211.3c0.1,0.1,0.1,0.1,0.2,0.1c-0.1-0.1-0.1-0.4-0.1-0.7C272.5,210.7,272.5,210.9,272.6,211.3z M318.9,249.6l0.3,0
							C318.7,249.9,318.8,249.7,318.9,249.6z"/>
						<path class="st1" d="M316.9,191.4c0.1,0.1,0,0.2,0,0.3C317,191.6,317.1,191.5,316.9,191.4z"/>
						<path class="st1" d="M340.5,226.9L340.5,226.9c0,0.1,0,0.1,0.1,0.1L340.5,226.9z"/>
						<path class="st1" d="M269.7,189.8c0.5,0,0.7,0,0.9,0.1C270.5,189.7,270.3,189.7,269.7,189.8z"/>
						<path class="st1" d="M273.4,218.3l-0.1-0.8c0,0.4-0.1,0.6-0.2,0.8C273.2,218.2,273.4,218,273.4,218.3z"/>
						<path class="st1" d="M270.4,225.6c0.1,0.1,0,0.3,0.1,0.4l0.2,0C270.7,225.4,270.5,225.1,270.4,225.6z"/>
						<path class="st1" d="M271.8,219.1c-0.4,0.1-0.3,0.6-0.2,1.2c0,0,0-0.1,0-0.1C272.2,220.3,272,219.7,271.8,219.1z"/>
						<path class="st1" d="M271.6,220.4c0,0.2,0,0.4,0,0.5C271.8,221,271.7,220.7,271.6,220.4z"/>
						<path class="st1" d="M272.8,213c-0.1,0.3,0.5,0.2,0.4,0.3C273.7,213.6,272.6,211.4,272.8,213z"/>
						<polygon class="st1" points="270.4,219.5 270.9,219.3 270.5,219 						"/>
						<path class="st1" d="M270.8,214.9l-0.1,0.9c0.1,0,0.1,0.1,0.2,0.3C270.9,215.5,271,214.9,270.8,214.9z"/>
						<path class="st1" d="M270.8,216.1c0,0.3,0,0.6,0.1,0.8C270.9,216.7,270.9,216.3,270.8,216.1z"/>
						<polygon class="st1" points="270.3,218.3 270.4,218 270.4,217.3 						"/>
						<path class="st1" d="M270.9,204.7l-0.1-1c-0.2-0.1-0.3,0.2-0.2,0.6C270.7,204.5,270.7,204.9,270.9,204.7z"/>
						<path class="st1" d="M269.5,207.8c0.1-0.3,0.2-0.3,0.4-0.5l-0.6,0L269.5,207.8z"/>
						<path class="st1" d="M269.4,204.8c-0.2-0.1-0.5-1.5-0.5-0.2C269.1,204.7,269.3,205.8,269.4,204.8z"/>
						<path class="st1" d="M272.6,190.9l-0.3,0.1l0.5,1C272.7,191.6,272.7,191.3,272.6,190.9z"/>
						<path class="st1" d="M286.2,187.2c-1.3-0.2-0.3,0.6-1.4,0.4c-0.3,0.3,0.9,0.2,0.6,0.4C286.2,187.8,286.6,187.9,286.2,187.2z"
							/>
						<path class="st1" d="M285.5,188c-0.1,0-0.2,0.1-0.4,0.2C285.3,188.1,285.4,188.1,285.5,188z"/>
						<polygon class="st1" points="272.6,256.5 271.8,256.6 272.3,256.5 						"/>
						<path class="st1" d="M271.1,256.7l-0.2,0l-0.5,0C270.6,256.7,270.9,256.7,271.1,256.7z"/>
						<path class="st1" d="M333.7,199.9l-0.2,0.1c0,0.2,0.1,0.4,0.3,0.7L333.7,199.9z"/>
						<polygon class="st1" points="339.1,210.5 339.1,210.3 338.6,210.8 						"/>
						<path class="st1" d="M341.6,220c0-0.4-0.2-0.9-0.2-1.3C341.6,219.6,340.9,220.1,341.6,220z"/>
					</g>
				</g>
			</g>
			<g>
				<g>
					<g>
						<path class="st1" d="M244.3,174.7c0-0.7,0-0.6,0-0.7C244.3,175.5,244.3,174.6,244.3,174.7z"/>
						<polygon class="st1" points="244,190.2 244,189.9 244,192.2 						"/>
						<path class="st1" d="M243.7,204.7c0.3-1.4,0-5.3,0.2-7.9l0.1-0.4l-0.2-1.2C243.8,198.4,243.8,202.5,243.7,204.7z"/>
						<path class="st1" d="M242.8,212.5c0.2-0.5,0.1,1.7,0.1-1.8c0,0.2,0,0.2,0,0.3C242.8,211.3,242.8,211.7,242.8,212.5z"/>
						<path class="st1" d="M242.8,211C242.9,209.5,242.7,212,242.8,211L242.8,211z"/>
						<path class="st1" d="M242.7,218.1l-0.1-2c-0.1,0.4-0.2,2.2-0.2,1.5C242.3,219.7,242.4,219.2,242.7,218.1z"/>
						<path class="st1" d="M242.9,220l0-1C242.8,219.1,242.8,219.4,242.9,220z"/>
						<path class="st1" d="M242.8,216.7l0.1,2.2c0.1-0.3,0.2-0.3,0-1C243,218.1,242.9,217.7,242.8,216.7z"/>
						<path class="st1" d="M242.9,215.5c0.1-1.1,0.2-2.6,0.3-0.6C243.3,211,243,211.6,242.9,215.5z"/>
						<path class="st1" d="M244,205.5l0.1-1.5l-0.1-1.3C244.1,203.3,243.9,205.6,244,205.5z"/>
						<path class="st1" d="M241.9,230.6c0.1,0.1,0.3-0.7,0.5-0.8l-0.1-1.5C242.2,229.1,242.1,230.5,241.9,230.6z"/>
						<path class="st1" d="M242.4,229.8l0.1,2.2C242.6,230,242.5,229.7,242.4,229.8z"/>
						<polygon class="st1" points="243.4,220.3 243.1,216.7 243.4,221 						"/>
						<polygon class="st1" points="241.6,239.1 241.4,237.9 241.7,240.1 						"/>
						<path class="st1" d="M241.5,244.8c-0.2-0.9-0.5,1.3-0.6,0.3c0,1.5,0.2,2.8,0.3,4C241.1,247.8,241.2,246.5,241.5,244.8z"/>
						<path class="st1" d="M241.4,251.1c0-0.6-0.1-1.3-0.2-2C241.2,249.8,241.3,250.4,241.4,251.1z"/>
						<path class="st1" d="M242.4,235.8c-0.1,0.2-0.3,0.5-0.4,1.8l0.4-0.9C242.4,236.4,242.4,236.1,242.4,235.8z"/>
						<path class="st1" d="M242.4,236.7L242.4,236.7c0,1-0.1,1.6-0.1,1.9C242.3,238.3,242.3,237.8,242.4,236.7z"/>
						<path class="st1" d="M242.4,235.6c0,0.1,0,0.1,0,0.2C242.4,235.7,242.4,235.7,242.4,235.6z"/>
						<path class="st1" d="M243,226.2c0.1,1.3,0.3,4,0.6,1.4C243.4,226.6,243.2,228.1,243,226.2z"/>
						<path class="st1" d="M242.8,234.5l0.1-2.4c-0.1,0-0.2,0.5-0.3-0.2L242.8,234.5z"/>
						<polygon class="st1" points="242.9,235.7 242.8,234.5 242.8,235.4 						"/>
						<path class="st1" d="M241.9,247c0.1,1,0.1,2.1,0.1,3.4c0.1-1.4,0.2-2.8,0.2-4.1C242.2,246.1,242,245.6,241.9,247z"/>
						<path class="st1" d="M242.2,242c0,0.1,0,0.2,0,0.2C242.2,242.1,242.2,242,242.2,242z"/>
						<path class="st1" d="M241.9,262.9c0-0.1,0-0.1,0.1-0.2c0,0,0,0-0.1,0L241.9,262.9z"/>
						<path class="st1" d="M242.4,246.1c0.1-1,0-1.6-0.1-2.2c0,0.8,0,1.6,0,2.4C242.3,246.4,242.4,246.4,242.4,246.1z"/>
						<path class="st1" d="M241.5,254.5c0.1-0.5,0.2-1.1,0.3-1.8C241.6,253.3,241.4,254.3,241.5,254.5z"/>
						<path class="st1" d="M242.1,242.6c0-0.1,0-0.1,0-0.2C242,242.7,242,242.7,242.1,242.6z"/>
						<path class="st1" d="M242.1,242.6c0,0.5,0.1,0.9,0.2,1.3c0-0.6,0-1.2-0.1-1.7C242.2,242.3,242.1,242.5,242.1,242.6z"/>
						<path class="st1" d="M244.7,266.6c-0.4-0.2-0.8-2.9-0.3-5.2c-0.3-2.3-1.6-0.8-2.3,1.2c0.2,0.1,0.3,0.1,0.6,2.4
							c0.2-0.8,0.5-5.2,0.9-3.2c0.2,3.1-0.1,2.5-0.3,4c0.5-1.3,0.7,3.9,1.4,3.3l-0.3-2.7C244.4,266.4,244.6,267.4,244.7,266.6z"/>
						<path class="st1" d="M242,258.2l0-1c-0.1,1.1-0.2,1.9-0.5,3.3c0.2,1.6,0.4,1.9,0.5,2l0-4.7L242,258.2z"/>
						<path class="st1" d="M242.1,252.9c0.4,0.8,0.6,3.1,1.1,1.6c0-2.8-0.3-2-0.5-3.7C242.6,255.5,242.4,249.6,242.1,252.9
							c0-0.9,0-1.7,0-2.5c-0.1,0.8-0.2,1.6-0.3,2.4c0,0,0-0.1,0-0.1l0,0l0,0c0.1-0.2,0.1-0.3,0.1,0c0,0,0,0.1,0,0.1
							C242,252.7,242,252.8,242.1,252.9c-0.1,1.3-0.1,0.2-0.2-0.2c0,0,0-0.1-0.1-0.1c0,0,0,0,0,0c0,1.5,0.1,3,0.2,4.6
							C242,256.3,242,255.1,242.1,252.9z"/>
						<path class="st1" d="M244.2,230c0,0.1-0.1,0.1-0.1,0.1C244.2,230.4,244.2,230.6,244.2,230z"/>
						<path class="st1" d="M244,231.9c0-0.3-0.2-0.6-0.1-1.7c0.1-0.9,0.2,0,0.3,0c-0.1-0.7-0.2-2.3-0.4-0.2l0,0.3
							c-0.1,1.8-0.6,4.2-0.6,3.9C243.5,233.6,243.7,233.1,244,231.9z"/>
						<path class="st1" d="M243.2,242.5l0.1,3.8l0.4-1.9l-0.2,0.1C243.6,242.3,243.4,242.8,243.2,242.5z"/>
						<polygon class="st1" points="241.7,263.3 241.3,262.8 241.9,265 						"/>
						<polygon class="st1" points="241.8,268.2 241.4,268 241.6,269.3 						"/>
						<path class="st1" d="M367.7,302.3l-0.4-1C367.5,301.7,367.6,302,367.7,302.3z"/>
						<path class="st1" d="M369.1,309.8l0.2,0.2C369.1,309.7,369,309.5,369.1,309.8z"/>
						<path class="st1" d="M260.8,376.9c1.6,0.5,3.4,1.2,3.2,0.7l-0.5-0.5C262.4,377.2,261.6,377.1,260.8,376.9z"/>
						<path class="st1" d="M342.5,364.6c-0.2,0-0.3,0.1-0.5,0.1c-0.3,0.3-0.6,0.6-0.8,0.8C341.6,365.2,342.1,364.9,342.5,364.6z"/>
						<path class="st1" d="M342.7,362.4l2-0.8C344.2,361.8,343.6,362.1,342.7,362.4z"/>
						<path class="st1" d="M340.6,271.9c-0.4-0.1-0.9-0.1-1.3-0.1C341.1,272.6,340.4,272.1,340.6,271.9z"/>
						<path class="st1" d="M242,318.8c-0.2,1.4-0.2,2.5-0.3,3.5C242,320.6,242.3,319.3,242,318.8z"/>
						<path class="st1" d="M372.9,304.3c-0.2-0.7-0.4-1-0.5-0.9C372.7,304.1,372.8,304.4,372.9,304.3z"/>
						<path class="st1" d="M241.7,326.4c0-0.2,0.1-0.5,0.1-0.7c-0.1-1-0.1-2.1-0.1-3.3C241.5,323.6,241.4,325,241.7,326.4z"/>
						<path class="st1" d="M304.2,172.1c-0.1,0-0.2-0.1-0.4-0.1C303.8,172,303.9,172.1,304.2,172.1z"/>
						<path class="st1" d="M257.7,171.4c0.5-0.1,1.2-0.2,1.9-0.3C259.2,171.1,258.7,171.2,257.7,171.4z"/>
						<path class="st1" d="M241.6,288.1C241.6,287.1,241.6,287.9,241.6,288.1L241.6,288.1z"/>
						<path class="st1" d="M243.3,283c0,0.2,0.1,0.4,0.2,0.4C243.4,283.3,243.4,283.2,243.3,283z"/>
						<path class="st1" d="M244.4,336.8C244.4,336.8,244.4,336.9,244.4,336.8C244.5,336.6,244.5,336.6,244.4,336.8z"/>
						<path class="st1" d="M241.8,286.5c-0.1,0.4-0.1,0.8-0.1,1.3C241.7,287.6,241.8,287.2,241.8,286.5z"/>
						<path class="st1" d="M241.6,286.7c0-0.4,0-0.6,0-0.9C241.6,285.7,241.5,285.8,241.6,286.7z"/>
						<path class="st1" d="M241.6,289.6c0-0.6,0-1.2,0-1.7c0,0.2-0.1,0.3-0.1,0.2C241.6,288.4,241.6,288.8,241.6,289.6z"/>
						<path class="st1" d="M363,218.7c0-0.1,0-0.1,0-0.2C362.8,217.4,362.9,217.9,363,218.7z"/>
						<path class="st1" d="M288.2,373.2c0,0-0.1,0-0.1,0C288.2,373.2,288.2,373.2,288.2,373.2L288.2,373.2z"/>
						<path class="st1" d="M291.9,372.8c-1.6,0.6-2.5,0.5-3.7,0.4l1.3,1.2C290.3,373.9,291.1,373.3,291.9,372.8z"/>
						<path class="st1" d="M359.3,286.1l1.2,2.2c-2.2-2.1-3.6-3.7-2.4-1.7c0.3-0.2,0.8,0.3,1.5,0.9c0.3,0.3,0.6,0.8,1,1.2
							c0.4,0.4,0.7,0.9,1,1.4c0.6,1,1.3,2,1.8,2.8c0.5,0.8,0.9,1.3,1.3,1.2l0.5,1.6c-0.2-0.4-0.3-0.5-0.5-0.9
							c0.8,3.1,1.9,1.8,3.2,5.8c0.3,1.4,0.3,2.5-0.1,1.6l1.1,3.1c0.1,0.5,0,0.7,0,0.6c-0.1,0-0.2-0.3-0.3-0.8
							c0.4,1.6,0.6,3.2,0.9,4.9l0,0c0.4,0.7,0.7,2.3,0.9,3.1c-0.1,1.3-0.2-0.6-0.3-0.3l0.5,2.8c-0.3,1.1-0.8-1.2-0.8-3.1
							c-0.6,1.3-0.5,1.9-0.3,2.8c0.1,0.5,0.2,1,0.2,1.8c0,0.8,0,1.8-0.4,3.2c0-0.9,0-1.7,0-2.6c-0.4,0.8-0.6,1.7-0.7,2.8
							c-0.1,1.1-0.4,2.3-0.8,3.6c0.2-0.3,0.7-1.7,1.1-2.7c0.4-1,0.8-1.5,0.8,0c-0.2,0.8-0.4,1.9-0.3,3.6c-0.5-0.1-0.6,1.5-1,3.4
							l-0.6-0.3c-0.3,2.1,0.1,2,0,3.3c-0.7,2.3-1.4,2.5-2,2.9c-1.4,3.5,1.7-2.1,0.2,2.1c-1.4,2.8-2.1,4.9-3.8,8.3
							c-1.4,1.7-0.1-0.5-0.7,0l-0.7,1.9c-0.3,0.4-0.3,0.2-0.3,0.1c-0.8,1.5,0.4,0.5-1,2.7c0.1,0.5-1,1.4-2.3,2.5
							c-1.3,1.1-2.8,2.3-3.7,3.7c-0.7,0.4,0-0.5-0.3-0.6c-1.5,1.6-2.1,2.3-2.8,2.9c-0.3,0.3-0.6,0.6-1,1c-0.4,0.4-0.8,0.9-1.5,1.5
							c-1,0.4-1.9,0.9-2.9,1.3c1.1-0.4,1.1-0.1,0.6,0.6c-0.5,0.6-1.6,1.5-2.7,2.3c0.8-0.2,1.6-0.4,2-0.5l-1.8,1.2l-1.8,1.1
							c-0.5,0.1-0.2-0.3,0.3-0.8c-0.2,0.2-0.5,0.3-0.6,0.5c-1.5,0.4-0.9-0.2-0.1-1c0.5-0.1,1-0.2,1.5-0.3c0.8-0.8,1.4-1.7,1-1.9
							c-0.2,0.2-0.6,0.5-1.1,0.8c0.2-0.2,0.3-0.4,0.2-0.4c-0.1,0-0.5,0.3-1,0.8l-1.2-0.2l-0.1,0.4c-1.7,0.7-3.4,1.2-5.1,1.7
							c-3.3,2-6.3,4.1-12.3,5.8c1.4-0.9,0.1-0.9,0.1-1.5c0.9,0.1,2-0.2,3.3-0.7c1.3-0.5,2.7-1.1,4.3-1.5c-1.6,0.4-1.3,0-1-0.2
							l-2.6,1.1c-0.9,0.3-1.8,0.6-2.7,1c0-0.5-1.3,0-2.8,0c1.3,0.7-4,1.5-6.3,2.2c-0.2-0.3,0.3-0.7,3.1-1.1
							c-1.6-0.1-2.5,0.3-3.5,0.8c-0.9,0.5-1.9,1-3.5,0.8c0.7-0.1,1.1-0.1,1.3-0.3c-1.6,0.5-5.5,0.8-4.6,0.4l0.7-0.1
							c-2.3,0.2-5.8,0.5-8.8,0.8c-3,0.3-5.5,0.6-5.9,1.1c0-0.1,0.6-1,0.8-1.2l-4.1,1.6l-4.1,1.5c0.7-0.7-2.1-2.4,1.8-2.9
							c-1.1-0.1-2.5-0.2-4.8,0.1c0.8,0.1,1.9,1.1,0.8,1.1c-2.8-0.8-2-0.4-5.4-1.2c1.1,0.2-0.1,1.3-1.9,1.2c0.3-0.2-0.1-1.1,0.5-1.2
							l-4.5,1c1.1-0.2,0.2-0.9-0.8-1.3c0.5,0.2-3.8-0.2-5-0.1l1.9,0.3c-5-0.4-5,1.3-10,0.9c0.6-0.2,1.6-1.3-0.9-1.6
							c-1.2,0.5-5.3,2.4-9.8,2.3c-0.3-0.1-0.5-0.3-0.9-0.4l-2.2-0.1l-1.2-0.1l-0.6,0l-0.3,0l-0.1,0l0-0.1l0-0.1l0,0.1l0,0.1
							c0,0,0.1,0,0.1,0c0.1,0,0.3,0,0.4,0c0.3,0,0.5-0.1,0.8-0.1c0.6-0.1,1.2-0.1,1.8-0.2c0.6-0.1,1.2-0.2,1.7-0.3
							c0.5-0.1,1.1-0.2,1.6-0.3c2.2-0.4,4.5-0.8,6.2-1c-1.8-0.4-0.5-0.4-3.3-0.7c-0.9-0.4,1.6-0.3,2.4-0.3c-2.1-0.3-4.3-0.5-6.4-0.9
							c0,0.2-0.1,0.3-0.3,0.4c-0.2,0.1-0.5,0.1-0.8,0.2c-0.8,0.3-0.7-0.5-1-0.2c-0.1,0.8,0.9,0.5,1.4,0.5c0.4-0.1,1.9,0,3,0
							c0.1,0.4-1,0.7-2.6,0.9c-0.6,0.1-1.4,0.2-2.4,0.2c-0.7,0.2-0.5-0.5-0.5-0.9c0-0.5,0-0.9,0-1.4c0.1-0.5,0.4-0.3,0.7-0.1
							c0.3,0.2,0.6,0.3,0.7,0.3c-0.2,0.4-0.4-3.8-0.2-4.1l0.4,2c0.3-2.6-0.9-4.2-0.2-7.3c0-1.1,0.9-3.2,0.5-3.4
							c-0.8,1.8-3.1,2.1-3.7,0.9c0.1-0.4,0.7-5.6,1.1-6.9c0.6-1.8,1.4,2.7,2,1.1c-0.2-0.1-0.4-1-0.5-1.4c0.2-1.1,0.6,0.5,0.5-2
							c-0.7-0.4,0.1-5-0.6-1.2c-0.2-2.4,0.1-2.5,0.1-5.4c-0.4,0.9-1.5-2.5-1.7-4.9c0.2,0.1,0.4-0.4,0.5-0.7
							c0.1-4.9,0.4-7.6,0.4-12.1c0.2-0.4,0.4-2.6,0.7-1.7c-0.1-0.7-0.4-1.3-0.4-2.7c0.6-2.7,0.1,3.2,0.8,1.1
							c-0.4-0.2-0.5-3.7-0.8-5.7c-0.6,0.6-0.1,4.7,0.1,6.7c-0.8,0-1.7-3.5-2.1-8.3c-0.2-3.8,0.5-1.7,0.4-2.3c0.1-7.1-1.5-6.1-0.9-12
							c0.5-2.4,1.1-0.1,1.5-0.6c0.2,3.1-0.3,4.8-0.3,6.9l0.3-2.6c0.2,1,0.3,3.1,0.2,4.2c0.5-2,0.1-12.1,0.5-17.6
							c-0.2-1-0.4-2.7-0.6-1.9l0.1,1.7c-0.4,1.6-0.6-3.3-0.8-1.1c-0.3-2.3-0.8-5-0.5-8.3l0.6-0.6c-0.2,0.1-0.4,2.2-0.2,3.1
							c-0.3-1.4,0.8-5.1,0-6.6l-0.4,2.3c-0.3-2.4-1-5.3-0.8-8.2c-0.6,1.3,0.1,0.7-0.6,2.7c0.9-1.8,0,7.5,0.9,4.6
							c-0.8,2.1-0.3,3.7-1,6.5c0.2-0.1,0.4-1,0.3,1.5c0.1,0.1,0.1,0.4,0.2,0.5c0,0.1,0,0.1,0,0.2c0,0,0-0.1,0-0.1c0,0.1,0,0.1,0-0.1
							c0.1-0.6,0.2-1.1,0.3-1.2c0.5,1.2,0.4,5.1,0.7,6.4c-0.1,1.5-0.2-0.6-0.4,0.2l0.4,2c-0.4,0.2-0.7,3.9-1,0.4l0,3.1
							c-0.3,1.8-0.4,4.3-0.2,5.9c-0.1,1.5,0.5,3.7,0.1,2.4l0.3,4.8l-0.1,0c-0.1,4.8,0.7,9.8-0.1,15.3c0.1,1.6,0.3,3.3,0.1,6
							l-0.4,0.5c0.1,2.1-0.4,6.2,0,7.1c-1,2.2-0.2,10-0.4,13.6l0.5,0.1c0,2.5,0.1,4.9,0.3,8l0.4-0.2c0.2,1.3,0.1,3.1,0,5
							c-0.1,1-0.1,2-0.2,3l0,0.8l0,1.2c0,0.8,0,1.7,0,2.5c-0.2-0.3-0.2-2.1,0-3.3c-0.1,1-0.2,2.1-0.2,3.2l0,1.6l0,0.2
							c0,0.1,0.1,0,0.2,0.1l0.4,0.1l0.8,0.1c1.1,0.1,2.2,0.3,3.2,0.3l0.8,0.1l0.4,0l0.2,0l1,0c2.6,0.1,5.2,0.1,7.5,0.6
							c1.2-0.1,2,0.1,2.8,0.2c-0.1,0-0.2,0-0.3,0c0.1,0,0.3,0,0.5,0c0.5,0.1,1,0.2,1.6,0.4c-0.5-0.1-0.9-0.3-1.3-0.3
							c0.9,0.1,2.2,0.1,3.6,0.1l0.5,0.5c0.1,0,0.2,0,0.3,0c1.3,0.2,1.1-0.2,0.4-0.6c0.7,0,1.3-0.1,1.8-0.2c1,0.8,3.5-0.1,4.9,0.8
							c0.9-0.4,6.6-0.1,7.3-1c0,0.1,0.4,0.2-0.3,0.2c1.5,0.1,2.9,0.2,4.2,0l0.6,0.6c1.1-0.3,2.1-0.5,3.2-0.8
							c1.9,0.4,2.8,0.6,0.8,1.1c4.7-0.8,3.8-0.3,7.7-1.2l-0.2,0.4c0.7,0,1.6-0.2,2.5-0.3c0.8-0.1,1.6-0.2,2.1-0.1
							c0.8,0.1,2.2,0.2,3.9,0.1c1.8-0.1,3.9-0.3,6.1-0.5c4.5-0.5,9.7-1.4,13.8-1.9c-1.8-0.8,3.8-0.4,3.9-1.4c0.5,0.2,1.7,0,0.5,0.6
							c2-0.7,3.6-1,4.9-1.4c1.4-0.4,2.6-0.8,3.8-1.7c0.6,0.1-0.7,0.7-0.2,0.7c0.3-0.1,1.2-0.7,1.6-0.7c0.5,0-0.5,0.5-1.1,0.8
							c2-0.8,3.1-1.5,3.6-2.1c0.5-0.6,0.5-1,0.5-1.5c2.1-0.6,3.1-1.1,4.2-2.3c0.8-0.1,2-0.5-0.3,0.9c0.7-0.3,2.8-1.4,4.6-2.5
							c0.5-0.3,0.9-0.6,1.3-0.9c0.4-0.3,0.7-0.6,1-0.8c0.6-0.5,0.9-0.9,0.9-1c0.5-0.1,1.7-1.3,1.9-1.6c0.7-0.5,1.2-1,1.6-1.3
							c0.4-0.4,0.7-0.7,1.1-1c0.7-0.6,1.3-1.3,2.4-2.6l-0.7,0.6c0.3-1.5,1.7-2.1,3.3-4.3l0,0.1c1-1.1,1.6-1.9,2-2.4
							c0.4-0.5,0.5-0.8,0.7-1.1c0.1-0.3,0.3-0.6,0.6-1.1c0.4-0.5,0.9-1.3,1.7-2.5l-0.6,0.1c-0.3-0.5,0.5-1.6,1.4-3
							c0.5-0.7,1-1.5,1.4-2.4c0.5-0.8,0.8-1.7,1-2.6l-0.7,1.1c0.1-1,1-2.1,1.7-3.3c0.8-1.2,1.6-2.4,1.9-3.3c0.2-0.4,0,0.7-0.1,1.3
							c0.9-2.4,0.8-2.7,0.5-2.7c-0.2-0.1-0.6,0-0.3-1.8c0.4-0.6,0.7,1.1,1.2-1.5c0.2-0.6,0.2-2.5,0.1-4.7c-0.1-2.2-0.2-4.6,0-6.3
							c-0.2,0.8-0.5,1.5-0.7-0.2c-0.1-1.3,0.1-3.2,0-5c-0.1-0.9-0.1-1.8-0.3-2.6c-0.1-0.4-0.1-0.8-0.3-1.1c-0.1-0.3-0.3-0.7-0.5-0.9
							c0-0.4,0-0.5,0.1-0.5c-0.2-0.5-0.4-1.1-0.6-1.9c-0.2-0.7-0.4-1.5-0.8-2.2c-0.6-1.5-1.3-2.8-1.7-3.3c0.3-0.6-0.1-1.6-0.6-2.8
							c-0.3-0.6-0.6-1.2-0.9-1.9c-0.3-0.7-0.8-1.3-1.2-1.9c-1.6-2.5-3.5-4.4-2.9-4.9l-1-1.3c-0.3-0.4-0.7-0.8-1.1-1.2l-2.2-2.4
							c0.1,0,0.2,0,0.2,0c-1.4-1.5-2.5-2.4-3.3-3c-0.9-0.6-1.6-0.9-2.2-1.2c-0.7-0.7,0-0.4,0.1-0.4c-0.6-0.5-1-1-1.5-1.3
							c-0.5-0.4-0.9-0.7-1.3-1c-0.8-0.6-1.4-1-2.1-1.4c-0.7-0.4-1.3-0.7-2.1-1c-0.8-0.3-1.7-0.7-2.9-1.1l-0.2-0.7
							c-0.3-0.1-1-0.4-1.8-0.9c-0.8-0.5-1.9-1-3.1-1.6c-0.6-0.4-1.2-0.6-1.8-0.9c-0.6-0.2-1.4-0.4-2.4-0.6c0.2,0,0.5,0,0.8,0
							c-0.2-0.1-0.6,0-0.6-0.3c-0.1-0.1,0.1-0.1,0.1-0.2l0.3-0.1c0.4-0.2,0.8-0.3,1.3-0.5c0.5-0.1,0.9-0.3,1.3-0.5
							c0.4-0.2,0.7-0.2,1.1-0.4c3.1-1.4,5.6-3.1,6-4.5c1.1-1,2.1-2,3.1-3c-4.4,3.3,0.2-1.1-1.8,0.1c0.8-0.7,1.9-1.5,2.6-1.9
							c0.7-0.4,1-0.4,0,0.5l-0.4,0.2c-0.1,0.7,1.3-0.4,2.7-1.6c1.3-1.3,2.7-2.7,2.8-2.4c3.6-4.2,6.6-8.8,8.7-13.8
							c2.1-5,3.2-10.3,3.3-15.6l-0.8,1.2l0.1-1.8c0-0.6,0-1.2,0-1.8c0.1-0.9,0.5-1.3,0.6,1.3c0.2-0.7,0.1-1.8-0.1-2.7
							c-0.2-0.9-0.5-1.6-0.6-1.7c0-1.3,0-1.8,0.1-1.9c0.1-0.1,0.2,0.3,0.4,0.7c0.2,0.9,0.5,2.3,0.4,1.5c-0.1-0.7-0.1-1.4-0.2-2.1
							l0,0.5c-0.3-0.8-0.5-1.3-0.7-1.9c-0.2-0.6-0.4-1.4-0.7-2.9c-0.2-1.9,0.2-1.1,0.1-1.8c0.1,0,0-0.3-0.3-1.2
							c-0.4-1.5-0.8-3-1.4-4.4c0,0.6,0.1,1.3,0.1,1.9c-0.9-1.8-1.5-4-1.3-1.8c0-0.8-0.5-2.2-1.1-3.8c-0.7-1.6-1.7-3.5-2.9-5.1
							c-1.1-1.7-2.5-3.2-3.6-4.4c-1.1-1.2-2-2-2.3-2.4c-0.6-0.4-1.2-0.8-1.8-1.2c-0.6-0.4-1.2-0.8-1.8-1.2c-0.6-0.4-1.2-0.9-1.8-1.3
							c-0.6-0.5-1.2-1-2-1.4c0.6,0.6,0.7,1.4-1.7-0.3c0.4-0.1,0.4-0.4,0-0.8c-0.4-0.4-1-0.8-1.7-1.3c-0.7-0.5-1.6-1-2.4-1.5
							c-0.4-0.3-0.8-0.5-1.1-0.8c-0.3-0.2-0.6-0.5-0.8-0.7c0.8,0.8-1.1-0.1-2.9-0.8c-1.8-0.7-3.5-1.2-2.1-0.2c-2.3-1,0-0.5-1.6-1.5
							c-2.8-0.8-5.9-1.6-9.2-2.4c-3.3-0.8-6.8-1.4-10.4-1.6c-0.1,0.1,1,0.5-0.5,0.6c-1.2-0.4-2.5-0.7-3.7-1c-1.4,0-1.4,0.7-3.9,0.2
							c0.4,0.1,0.9,0.3-0.1,0.3c-7-0.6-14.1-0.2-21.2,0.2c-7.1,0.5-14.2,1-21.2,1.8c1.9-0.2,0.6,0-0.8,0.2c0.9-0.1,0,0.1,0.2,0.1
							c-2,0.2-3.9,0.5-5.8,0.8c-0.5,0.1-2.1,0.4-3.6,0.7c-1.5,0.3-2.9,0.6-3.2,0.7l1.8-0.4c-1.2,0.3-0.4,0.1,0.8,0
							c1.1-0.2,2.5-0.3,2.3-0.2c1.4-0.2,3.2-0.4,5.2-0.6c2-0.2,4.3-0.3,6.6-0.6c1,0-0.8,0.2-0.3,0.2c1.1-0.2,2.5-0.3,5.1-0.4
							l-0.3,0.1c7.2-0.4,10.3-0.4,18.5-0.2l-0.6-0.3c1.7,0,2.1,0.1,2.9,0.2c2-0.4-4.9-0.1-3.1-0.5c2.3,0.5,12.3,0.2,13.8,1.1
							c2.7,0.2-0.8-0.5,1.9-0.3l0.7,0.3l0.7-0.2c1.7,0.2,2.6,0.6,2.6,0.8c-0.4-0.1-1.2-0.1-1.7-0.1c2.2,0.5,6.3,0.6,7.1,0.9
							c-0.8-0.2-1.7-0.4-2.5-0.5c3.6,0.4,7.6,1,11.4,1.9c3.8,0.9,7.6,2,11,2.8l-0.4-0.4c1.3,0.4,2.1,0.7,2.8,1
							c0.7,0.3,1.2,0.6,1.6,0.8c1,0.5,2,1.2,4.6,2.5l-0.2-0.1c1.1,0.4,2.5,1.1,3.8,2c-1.3-0.6,2,2,0.2,1.1c2.4,1.5,3,1.9,3.5,2.1
							c0.4,0.2,0.8,0.1,2.5,1.1l0.4,0.9c0.6,0.3,0.9,0.5,1.4,0.8c0.5,0.3,1.1,0.8,2.1,1.9c-1.8-1.6,0.8,1.7-1.3,0.1
							c1.7,2.5,3.1,4.1,4.2,5.6c1.1,1.4,1.8,2.7,1.9,4.2c1,1,0.7-0.2,0-1.5c-0.6-1.3-1.5-2.7-1-2.1c-0.2-0.6,0.3-0.3,0.9,0.5
							c0.6,0.8,1.3,2,1.6,2.9c0.2,0.5,0.3,0.9,0.4,1.4c0,0.5,0.1,1,0.1,1.6c0.1,0.6,0.1,1.3,0.3,2.1c0.1,0.4,0.2,0.9,0.3,1.4
							c0.1,0.5,0.2,1,0.3,1.6c-0.1-0.5-0.2-0.5-0.3-0.9c0.1,0.9,0.4,1.7,0.6,2.6c0.2,0.9,0.5,1.9,0.4,3c0.8,1.2,0.2,2.9,1.1,3.2
							c-0.1-0.7-0.2-1.5-0.3-2.2l-0.4-2.2c0.3,1.2,0.7,2.4,1,3.9c0.2,0.7,0.3,1.5,0.3,2.4c0,0.9,0.1,1.8-0.1,2.9
							c-0.1-0.2-0.1-0.6-0.2-1c-0.1-0.5-0.2-1-0.3-1.4c-0.2,1.2,0.2,2.4-0.1,3.6c-0.2-0.1-0.3-0.5-0.3-1c0-0.6,0-1.3-0.1-2.1
							c0-1.6-0.2-3.6-0.6-4.9c-0.1,0.7,0.1,1.9,0.3,2.8c0.1,0.9,0.1,1.5-0.3,0.9c0.6,0.9,0.6,2.2,0.4,3.5c-0.1,0.7-0.1,1.4-0.1,2.1
							c-0.1,0.7-0.1,1.5,0,2.4l-0.4-0.3c0,0.3,0,0.7,0,1.1c0,0.5-0.1,0.9-0.2,1.4c-0.1-0.6-0.1-1.2-0.3-1.8c0.1,1.3-0.4,2.5-0.7,3.7
							c-0.5,1.1-1,2.3-1.2,3.5c1.5-4.9,0.9-0.9,1.9-3c-0.3,1.6-0.6,2.6-0.9,3.3c-0.4,0.7-0.7,1.1-1.1,1.5c-0.7,0.8-1.5,1.7-3.1,4.9
							c0.5-0.8,1.9-3.1,1.5-1.6c-0.2,0.3-0.4,0.6-0.6,0.9c-0.2,0.3-0.5,0.6-0.7,0.9c-0.4,0.6-0.9,1.1-1.2,1.4
							c-2.6,4,0.8-0.3-0.1,1.5c-1.4,1-1.1,2.1-2.4,3.8l-0.4-0.3c-0.5,0.5-0.8,0.9-1.1,1.2c-0.3,0.3-0.5,0.6-0.6,0.7
							c-0.3,0.4-0.3,0.6-0.3,0.8c0,0.2,0,0.4-0.3,0.7c-0.1,0.2-0.3,0.4-0.6,0.7c-0.3,0.3-0.7,0.6-1.2,1c0.4-0.6,0.8-1.3,1.1-1.9
							c-0.5,0.7-1.2,1.3-1.8,1.9l0-0.8c-0.9,1.1-1.5,1.8-2.3,2.3c-0.7,0.5-1.5,1.1-2.6,1.8c0.7-0.1,0.2,0.9-1.9,2.3
							c-1.6,0.6,0.6-0.8-2.4,1c0.3-0.3,0.5-0.7,0.9-1c0.4-0.3,0.9-0.6,1.7-0.8c0-0.2,0.5-0.7,0.5-0.9c-0.8,0.4-1.8,1-2.7,1.5
							c-0.4,0.3-0.9,0.5-1.3,0.8c-0.4,0.2-0.6,0.4-1.3,0.8c0.1,0,0.2-0.1,0.3-0.1l0.3-0.2c0.1-0.1,0.2-0.1,0.3-0.2
							c0.2-0.1,0.4-0.2,0.6-0.2l-0.5,0.4l-0.3,0.2c0,0-0.3,0.2-0.4,0.3c-0.6,0.4-1.3,0.7-1.9,1l-3.4,1.9c-0.8,0.2-0.8,0.2-0.9,0.1
							c0.1-0.1,0.5-0.4,0.8-0.6c-0.4,0.2-0.7,0.4-1,0.5c-0.2,0.2-0.2,0.3-0.3,0.5c-0.2,0.3-0.4,0.7-0.9,1.1
							c-0.3-0.3-0.8-0.3-0.2-1.8c-0.2,0.6-0.5,1.2-0.8,1.7c-0.1,0.3-0.3,0.5-0.5,0.8c-0.1,0.2-0.2,0.2-0.1,0.5c0,0.3,0,0.6,0.2,0.6
							c0,0.1,0.2,0.5,0.2,0.8c0.1,0.3,0,0.6-0.2,0.4c0.1,0.2,0.2,0.5,0.3,0.7l0.1,0.2l0.1,0.1c0,0,0,0.1,0.1,0.1
							c0.4,0.1,0.8,0.2,1.1,0.3c1.6,0.5,3.2,0.9,4.9,1.4c0.8,0.2,1.6,0.4,2.4,0.7l0.6,0.2l0.3,0.1l0.6,0.2c0.8,0.3,1.7,0.6,2.4,1.1
							c0.2,0,0.6,0.1,1.2,0.4c2.9,1.6,5.1,3.5,8.6,5.4l1.3,1.9c1.2,0.9,0.8,0.3,0.6-0.2c-0.2-0.5-0.2-0.9,1.8,0.7
							c2.8,2.3,0.6,1.4,1.3,2.4c0.8,0.5,1.7,1.2,2.8,2.2c1.1,0.9,2,2.3,2.8,3.7C360.4,287.6,359.9,286.8,359.3,286.1z M369.4,321.4
							c-0.1-0.7-0.2-2.2,0.1-2.7C370,319.5,369.6,320.1,369.4,321.4z M336.9,366.1c0.5-0.4,1.3-0.6,2.3-0.9
							C338.6,365.6,337.8,365.9,336.9,366.1z M242,299.6C242,299.6,242,299.6,242,299.6C241.8,301.4,241.9,300.8,242,299.6z
							 M242.2,296c-0.1-0.4-0.1-0.3-0.2-0.2c0.1,0.2,0.1,1,0.1,1.9C242.2,297.6,242.3,297.1,242.2,296z M364.7,207.1l0,0.7
							C364.3,206.3,364.5,206.7,364.7,207.1z"/>
						<path class="st1" d="M342.7,362.7c0.2,0,0.3,0,0.4,0.1C343.3,362.6,343.2,362.5,342.7,362.7z"/>
						<path class="st1" d="M340.9,272L340.9,272c-0.2-0.1-0.2,0-0.2,0L340.9,272z"/>
						<path class="st1" d="M246.3,350.9c-0.1,0.7-0.2,1.1-0.2,1.4C246.2,352.4,246.3,352.1,246.3,350.9z"/>
						<path class="st1" d="M241.4,277.3l0.1,2.3c0-1.1,0.1-1.5,0.2-2C241.6,277.5,241.4,278,241.4,277.3z"/>
						<path class="st1" d="M244.4,257.5c-0.1-0.3,0-0.7-0.1-1l-0.2,0.1C244.1,258,244.3,259,244.4,257.5z"/>
						<path class="st1" d="M243,275.2c0.4-0.2,0.3-1.6,0.2-3.2c0,0.1,0,0.2,0,0.3C242.6,271.8,242.8,273.5,243,275.2z"/>
						<path class="st1" d="M243.2,271.6c0-0.5,0-1,0-1.5C242.9,269.9,243.1,270.7,243.2,271.6z"/>
						<path class="st1" d="M242,291.5c0.1-0.8-0.5-0.5-0.4-0.9C241.1,289.8,242.2,295.7,242,291.5z"/>
						<polygon class="st1" points="244.3,273.9 243.8,274.4 244.2,275.3 						"/>
						<path class="st1" d="M244,286.4l0.1-2.5c-0.1,0-0.1-0.3-0.2-0.7C243.9,284.8,243.8,286.5,244,286.4z"/>
						<path class="st1" d="M243.9,283.2c0-0.8,0-1.6-0.1-2C243.9,281.6,243.9,282.5,243.9,283.2z"/>
						<polygon class="st1" points="244.5,277.3 244.4,278.1 244.3,279.9 						"/>
						<path class="st1" d="M243.9,313.7l0.1,2.8c0.2,0.3,0.3-0.5,0.2-1.5C244.1,314.3,244,313.3,243.9,313.7z"/>
						<path class="st1" d="M245.2,305.4c-0.1,0.8-0.2,0.8-0.4,1.2l0.6,0.1L245.2,305.4z"/>
						<path class="st1" d="M245.4,313.4c0.2,0.3,0.5,4,0.5,0.5C245.7,313.7,245.5,310.9,245.4,313.4z"/>
						<polygon class="st1" points="244.6,355.2 244.6,354.5 243.6,354.6 						"/>
						<path class="st1" d="M263.7,371.9c-3.2-0.5-0.8,0.6-3.7,0.1c-0.8,0.2,2.4,0.4,1.6,0.6C263.5,372.4,264.5,372.6,263.7,371.9z"
							/>
						<path class="st1" d="M261.5,372.6c-0.3,0-0.7,0-1,0.1C261.1,372.6,261.4,372.6,261.5,372.6z"/>
						<path class="st1" d="M250,172.6c-0.7,0.1-1.4,0.3-2.1,0.4c0.4-0.1,0.9-0.2,1.3-0.3L250,172.6z"/>
						<path class="st1" d="M246.1,173.5l-0.5,0.1l-1.2,0.3C244.8,173.8,245.7,173.6,246.1,173.5z"/>
						<path class="st1" d="M367.3,326.7l0.1,0.2c0.2-0.3,0.3-0.7,0.5-1.6L367.3,326.7z"/>
						<polygon class="st1" points="366.3,300.1 366.5,300.5 366.7,299.5 						"/>
						<path class="st1" d="M353.7,281.9c0.6,0.7,1.5,1.3,2.1,2C354.3,282.5,354,281.2,353.7,281.9z"/>
					</g>
				</g>
			</g>
		</g>
	</g>
</g>
<g>
	<g>
		<g>
			<g>
				<g>
					<path class="st1" d="M452.4,447.9c-0.1,2.6,0.8,1.7,0.9,2.1C453.1,445.7,452.2,448.1,452.4,447.9z"/>
					<polygon class="st1" points="450.5,405.1 450.8,405.9 450,399.5 					"/>
					<path class="st1" d="M450.5,365c-1.4,3.8,0.2,14.5-0.3,21.7l-0.3,1.2l1.2,3.2C450.8,382.4,450.1,371.1,450.5,365z"/>
					<path class="st1" d="M453.6,343.7c-0.6,1.3-0.5-4.6-0.2,5c0.1-0.5,0.1-0.6,0.1-0.9C453.5,346.9,453.5,345.7,453.6,343.7z"/>
					<path class="st1" d="M453.5,347.8C453.6,352,454,345,453.5,347.8L453.5,347.8z"/>
					<path class="st1" d="M453.2,328.3l0.5,5.6c0.3-1.2,0.4-6.1,0.6-4.3C454.1,323.9,453.8,325,453.2,328.3z"/>
					<path class="st1" d="M452.2,323l0.2,2.9C452.5,325.4,452.6,324.6,452.2,323z"/>
					<path class="st1" d="M452.8,332l-0.4-6.1c-0.2,0.8-0.7,0.9,0.2,2.8C452.1,328.2,452.5,329.4,452.8,332z"/>
					<path class="st1" d="M452.6,335.4c-0.3,3.1-0.5,7.1-1,1.6C451.8,347.6,452.8,346.1,452.6,335.4z"/>
					<path class="st1" d="M449,363l-0.4,4.2l0.5,3.6C448.8,369,449.5,362.7,449,363z"/>
					<path class="st1" d="M454,293.6c-0.3-0.3-0.8,1.9-1.2,2.3l0.3,4.1C453.3,297.9,453.5,293.9,454,293.6z"/>
					<path class="st1" d="M452.8,295.9l-0.5-6.1C452.2,295.3,452.4,296.3,452.8,295.9z"/>
					<polygon class="st1" points="450.6,322 451.7,332.1 450.6,320.1 					"/>
					<polygon class="st1" points="454,270.2 454.7,273.7 453.6,267.5 					"/>
					<path class="st1" d="M453.9,254.6c0.6,2.6,1-3.5,1.3-0.8c-0.1-4.2-0.6-7.8-1.1-11.1C454.4,246.2,454.3,249.9,453.9,254.6z"/>
					<path class="st1" d="M453.5,237.3c0.1,1.7,0.4,3.5,0.7,5.5C454,240.9,453.8,239.1,453.5,237.3z"/>
					<path class="st1" d="M452.4,279.3c0.2-0.5,0.7-1.4,0.9-4.8l-0.9,2.4C452.4,277.6,452.4,278.5,452.4,279.3z"/>
					<path class="st1" d="M452.4,277L452.4,277c0.1-2.7,0.1-4.5,0.1-5.3C452.4,272.4,452.4,273.9,452.4,277z"/>
					<path class="st1" d="M452.4,279.9c0-0.2,0-0.4,0-0.6C452.3,279.6,452.3,279.7,452.4,279.9z"/>
					<path class="st1" d="M451.4,305.9c-0.5-3.6-1-11.1-1.7-3.9C450.2,304.6,450.6,300.5,451.4,305.9z"/>
					<path class="st1" d="M451.3,282.9l-0.2,6.5c0.2-0.1,0.6-1.3,0.8,0.5L451.3,282.9z"/>
					<polygon class="st1" points="451,279.7 451.3,282.9 451.4,280.5 					"/>
					<path class="st1" d="M452.7,248.4c-0.4-2.8-0.4-5.9-0.5-9.4c-0.2,3.7-0.3,7.6-0.3,11.3C452.3,250.8,452.7,252.4,452.7,248.4z"
						/>
					<path class="st1" d="M452.5,262.3c0-0.2,0-0.4,0-0.6C452.3,262.1,452.3,262.4,452.5,262.3z"/>
					<path class="st1" d="M452.3,204.8c-0.1,0.2-0.1,0.4-0.2,0.6c0,0,0.1,0.1,0.1,0.1L452.3,204.8z"/>
					<path class="st1" d="M451.8,250.9c-0.2,2.8,0,4.5,0.3,6.1c-0.1-2.1-0.1-4.3-0.1-6.7C451.9,250.1,451.8,250,451.8,250.9z"/>
					<path class="st1" d="M453.1,227.7c-0.2,1.5-0.3,3.1-0.5,4.9C452.9,231.1,453.3,228.2,453.1,227.7z"/>
					<path class="st1" d="M452.7,260.7c0,0.1,0,0.3,0,0.4C452.9,260.2,452.8,260.4,452.7,260.7z"/>
					<path class="st1" d="M452.7,260.7c-0.1-1.4-0.3-2.6-0.5-3.7c0.1,1.7,0.2,3.3,0.3,4.7C452.5,261.3,452.6,261,452.7,260.7z"/>
					<path class="st1" d="M446.8,194.4c0.8,0.5,1.5,7.9,0.7,14.2c0.6,6.3,3.2,2.2,4.7-3.3c-0.3-0.2-0.7-0.2-1.1-6.6
						c-0.4,2.3-1,14.3-1.7,8.9c-0.4-8.5,0.3-7,0.7-11.1c-1,3.5-1.4-10.9-2.9-9l0.5,7.5C447.3,195,447,192.3,446.8,194.4z"/>
					<path class="st1" d="M452,217.6l0.1,2.7c0.1-3,0.5-5.2,1.1-9.2c-0.4-4.4-0.7-5.3-0.9-5.6l-0.1,13.1L452,217.6z"/>
					<path class="st1" d="M452.1,232.2c-0.9-2.1-1.2-8.4-2.2-4.5c0.1,7.8,0.7,5.5,1.1,10.1C450.8,225.2,451.5,241.4,452.1,232.2
						c0,2.6,0.1,4.8,0.1,6.9c0.1-2.3,0.2-4.4,0.4-6.5c0,0.1,0,0.2-0.1,0.3l0,0.1l0,0c-0.1,0.5-0.2,0.7-0.1,0.1c0,0,0-0.2,0-0.3
						C452.3,232.7,452.2,232.4,452.1,232.2c0.2-3.6,0.2-0.6,0.3,0.6c0,0,0.1,0.1,0.1,0.2c0,0,0,0,0,0l-0.5-12.6
						C452,222.9,452,226.3,452.1,232.2z"/>
					<path class="st1" d="M447.8,295.3c0.1-0.4,0.1-0.4,0.2-0.4C447.9,294.1,447.8,293.8,447.8,295.3z"/>
					<path class="st1" d="M448.3,290.2c0.1,0.9,0.5,1.7,0.4,4.7c-0.3,2.6-0.4,0-0.7,0.1c0.2,1.8,0.6,6.3,1,0.7l-0.1-0.9
						c0.3-5.1,1.4-11.6,1.5-10.7C449.6,285.5,449.1,286.8,448.3,290.2z"/>
					<path class="st1" d="M450,260.8l-0.4-10.5l-0.7,5.3l0.4-0.3C449.1,261.4,449.6,260.1,450,260.8z"/>
					<polygon class="st1" points="452.7,203.6 453.6,205 452.3,198.9 					"/>
					<polygon class="st1" points="452.6,190 453.4,190.5 452.9,186.9 					"/>
					<path class="st1" d="M12.8,160.1l0.2,3.1C12.9,161.7,12.8,160.8,12.8,160.1z"/>
					<path class="st1" d="M12.8,137.8l-0.4-0.5C12.6,138.3,12.8,138.7,12.8,137.8z"/>
					<path class="st1" d="M292.5,5.5c-4.5-0.7-9.5-1.9-9-1l1.4,0.9C288,5.2,290.4,5.3,292.5,5.5z"/>
					<path class="st1" d="M63.4,10.7c0.4,0.1,0.9,0.2,1.3,0.3c1.1-0.3,2.1-0.6,3-0.8C66.4,10.3,65,10.5,63.4,10.7z"/>
					<path class="st1" d="M60.2,14.3l-5.9-0.6C55.7,13.9,57.6,14.1,60.2,14.3z"/>
					<path class="st1" d="M13.7,281.8l0.9,3.6C14.5,279.8,14.1,282.3,13.7,281.8z"/>
					<path class="st1" d="M452.3,50.5c0.3-3.9,0.5-7,0.5-9.7C452.3,45.5,451.5,49.2,452.3,50.5z"/>
					<path class="st1" d="M3.5,151.3c0.2,1.9,0.3,2.7,0.5,2.6C3.9,152,3.8,150.9,3.5,151.3z"/>
					<path class="st1" d="M452.8,29.6c-0.1,0.7-0.1,1.4-0.2,2c0.1,2.8,0.3,5.7,0.2,9.1C453.1,37.4,453.4,33.4,452.8,29.6z"/>
					<path class="st1" d="M281.4,445c0.3,0,0.7,0.1,1,0.1C282.5,445,282.1,445,281.4,445z"/>
					<path class="st1" d="M410.1,453.8c-1.3,0.1-3.3,0.1-5.3,0.1C405.8,453.9,407.4,453.9,410.1,453.8z"/>
					<path class="st1" d="M452.9,135.2C453,138.1,453,135.6,452.9,135.2L452.9,135.2z"/>
					<path class="st1" d="M449.5,149.2c-0.1-0.6-0.2-1.1-0.4-1.2C449.3,148.3,449.4,148.7,449.5,149.2z"/>
					<path class="st1" d="M437.9,10.6c-0.1,0-0.2,0-0.2,0C438.5,10.8,438.3,10.8,437.9,10.6z"/>
					<path class="st1" d="M452.6,139.5c0.1-1.1,0.2-2.3,0.3-3.7C452.7,136.4,452.7,137.5,452.6,139.5z"/>
					<path class="st1" d="M453,138.9c0,1-0.1,1.8-0.1,2.5C453,141.8,453.1,141.5,453,138.9z"/>
					<path class="st1" d="M452.9,131.1c0,1.7,0,3.2-0.1,4.7c0.1-0.6,0.1-0.8,0.1-0.7C452.9,134.3,452.9,133.1,452.9,131.1z"/>
					<path class="st1" d="M44.8,447.4c0.2,0,0.4,0,0.6,0.1C48.4,447.1,47.1,447.1,44.8,447.4z"/>
					<path class="st1" d="M217.3,14.5c0.1,0,0.2,0,0.3,0C217.5,14.5,217.3,14.5,217.3,14.5L217.3,14.5z"/>
					<path class="st1" d="M206.9,15.2c4.4-1.1,6.9-0.9,10.3-0.7l-3.4-2.5L206.9,15.2z"/>
					<path class="st1" d="M13,213.5l0.8-7.3c1.3,8.8,0.8,15.2,1.9,8.3c-2.7-1-0.3-28.3-3-29.3l0.6-4.8c0,1.4,0.1,1.6,0.1,3
						c1.3-9.3-2-6.9-1.6-19c0.2-4.2,0.6-7.1,0.9-4.3l-0.7-9.3c0.1-2.7,0.5-2.1,0.5,0.7l-0.2-14.3l0.1,0.1c-0.4-2-1.1-6.6-1.4-8.9
						c0.4-3.6,0.3,1.8,0.6,0.9l-0.7-7.9c0.7-3.2,1.4,3.3,1.3,8.8c2.7-7.4-0.7-6.5,0.9-22.5l0.3,7.5c1.5-4.8,1-10.6,1.9-19
						c-0.5,2-2.4,16.9-3.1,8.3c0.2-2.4,0.3-5.6-0.2-10.2c1,0,0.7-4.6,0.7-10.2l1.3,0.4c-0.4-6.1-1-5.6-1.6-9.2
						c0.1-6.8,1.1-8.2,2-9.8c0.2-10.9-1.6,7.5-1.8-5.4c0.5-9.1,0-15.4-0.8-26.3c0.4-6.3,0.8,1.1,1.1-1.2l-1-5.6
						c0-1.4,0.3-0.9,0.5-0.7c-0.4-4.7-1.3-0.4-1.6-7.8c-0.6-0.6-0.3-2.9,0.1-4.9c0.8,0.1,1.7,0.3,2.7,0.4c0.4,0.1,0.8,0.1,1.2,0.2
						l0.6,0.1l0.3,0l0.5,0c2.9,0.1,5.8,0.1,8.4-0.4c2.3,0.4-1.1,0.8-0.4,1.3c12.6-1.1,10.8-0.8,21.2-2.2l8.8,0.8
						c-6.5-1,1.8-2.1,9.1-3c-2.3-0.5-4.3-0.9-5.6-1.1l11.6-0.7c1.4,0.2,0.2,0.7-1.7,1.2c0.8-0.1,1.5-0.2,2.1-0.3
						c4.2,0.5,2,1.2-1,1.9c-1.4-0.3-2.8-0.5-4.2-0.8c-2.9,0.8-5.5,1.6-5,2.4c0.8-0.1,2.2-0.3,3.8-0.3c-0.7,0.2-1.2,0.4-0.9,0.5
						c0.4,0.1,1.6-0.1,3.5-0.5l2.6,1.4l0.6-0.6l15.2,0.9c10.9-1.4,20.3-3.5,37.6-4.1c-4.3,1-0.9,1.7-1.2,2.9
						c-4.7-1.3-13.4,0.6-22.3,0.3c4.7,0.1,3.6,0.7,2.5,0.9l15.9-1.2c-0.4,1,3.4,0.8,7.5,1.2c-3.1-2,11.9-1.3,18.4-1.9
						c0.4,0.7-1.2,1.4-9.1,1.2c8.7,1.5,11.3-2.4,19.9-1.1c-1.9,0-3-0.1-3.7,0.3c4.5-0.6,15.5-0.1,13,0.5l-1.9,0
						c12.8,0.2,39,0,41-1.7c0.1,0.2-1.7,2.1-2.5,2.4l22.9-5.7c-2,1.5,5.7,4.9-4.9,5.8c3.1,0.2,6.8,0.5,13.3-0.1
						c-2.1-0.2-5.2-2.1-2.3-2.2c7.8,1.6,5.4,0.9,15.1,2.3c-3.1-0.3,0.3-2.6,5.3-2.5c-0.8,0.3,0.4,2.3-1.4,2.5l12.3-2.2
						c-3.1,0.4-0.5,1.9,2.2,2.5c-1.3-0.4,10.6,0,13.9-0.2l-5.2-0.5c13.9,0.3,13.7-3.2,27.5-3c-1.7,0.5-4.1,2.9,2.9,3.1
						c3.2-1.2,14.2-5.5,26.4-6.4l2.3,0.7l9.3-0.8c-5.8,1.7-22.1,5.4-31.1,6.8c5.2,0.5,1.4,0.8,9.2,0.7c2.7,0.6-4.2,0.9-6.5,1
						l18.1,0.4c-0.8-1.3,13.8-1.3,13.1-2.5l-19.7,1.4c-0.8-1.3,11.4-3.8,24.2-3.6c3.3,0.5-2.4,2.4-2.2,2.8
						c1.7-0.5,12.2-0.9,13.3-0.6l-5.4,0.7c7.1,0.5,11.6-1.8,20.2-0.5c3,0.1,8.8,1.7,9.4,0.9c-4.8-1.5-5.8-6.3-2.6-7.4
						c1,0.1,15.5,1.5,18.9,2.2c4.9,1.2-7.3,2.9-3.2,3.9c0.2-0.4,2.9-0.8,4-1c3.1,0.3-1.3,1.1,5.5,1c1.1-1.4,13.7,0.1,3.2-1.2
						c6.6-0.4,7,0.3,14.8,0.2c-2.5-0.9,7-3,13.6-3.4c-0.4,0.3,1.1,0.8,1.8,1c3.6,0,6.6,0.1,9.3,0.2c-0.1,4-0.2,7.5-0.4,11.2
						c-0.1,3.8-0.2,7.7-0.2,12.3c-0.3,1.2-0.7,7.3-1.3,4.7c0.2,1.8,0.7,3.5,0.7,7.4c-1.2,7.5-0.2-8.7-1.6-2.9
						c0.8,0.5,1.1,10.1,1.6,15.6c1.2-1.7,0.2-12.8-0.3-18.4c1.7,0,3.5,9.6,4.2,22.9c0.4,10.5-1.1,4.5-0.9,6.4
						c-0.3,19.7,2.9,16.8,1.7,33.2c-1.1,6.5-2.1,0.3-2.9,1.7c-0.4-8.5,0.7-13.1,0.6-18.9l-0.5,7.1c-0.4-2.7-0.6-8.4-0.3-11.5
						c-1,5.4-0.2,33.3-1.1,48.5c0.4,2.7,0.7,7.4,1.2,5.2l-0.1-4.8c0.9-4.4,1.2,9.1,1.6,3c0.6,6.5,1.6,13.7,1.1,22.8l-1.2,1.7
						c0.4-0.2,0.7-5.9,0.4-8.5c0.5,3.8-1.7,13.9-0.1,18.1l0.8-6.4c0.6,6.5,1.9,14.5,1.5,22.5c1.2-3.7-0.1-1.9,1.3-7.6
						c-1.8,5,0.1-20.6-1.8-12.6c1.6-5.9,0.7-10.2,2.1-17.8c-0.4,0.2-0.8,2.7-0.6-4c-0.1-0.3-0.3-1-0.4-1.5c0-0.2,0-0.3,0-0.5
						c0,0.1,0,0.2,0,0.4c-0.1-0.3-0.1-0.3,0,0.1c-0.2,1.6-0.4,2.9-0.6,3.4c-0.9-3.4-0.9-14.1-1.4-17.7c0.2-4,0.5,1.7,0.9-0.5
						l-0.7-5.4c0.9-0.5,1.5-10.7,2-1.2l0-8.5c0.5-5,0.7-11.9,0.3-16.1c0.2-4-1-10.1-0.3-6.6l-0.6-13.3l0.2-0.1
						c0.1-13.2-1.5-27.1,0.1-42.1c-0.1-2.2-0.2-4.5-0.3-7.1c0-1.3-0.1-2.7,0-4.3c0-2.1,0.1-4.4,0.1-6.9c0.3-0.9,0.5-1.8,0.8-2.8
						c0-1.6-0.1-3.5,0-5.7c-2.5,0-5.3-0.1-8.1-0.1c-2.4-0.1-4.8-0.1-7-0.2c-3.1-0.1-5.6-0.1-6.6,0.3c-6.1-2.1-27.6-0.5-37.6-0.8
						l-0.4,1c-6.9-0.1-13.5,0.2-22,0.6l0.5,0.9c-7.4,0.7-18.9-0.6-30.6-0.5c0.8-0.3,3.7-0.3,5.8,0c-13.9-2-29.4,1.5-42,0
						c-3.1,0.3-5.4,0.2-7.6,0c0.3,0,0.6,0,0.8,0c-0.3,0-0.8,0-1.3,0c-1.4-0.2-2.8-0.3-4.4-0.5c1.3,0.2,2.6,0.4,3.7,0.5
						c-2.4,0-6.1,0.1-9.7,0.4l-1.5-1c-0.3,0-0.5,0-0.8,0c-3.5-0.4-2.8,0.5-1,1.2c-1.8,0.2-3.5,0.3-4.8,0.6
						c-2.9-1.6-9.5,0.5-13.4-1.1c-2.4,0.8-18.1,0.6-20.1,2.3c-0.1-0.2-1.2-0.3,0.8-0.3c-4-0.2-8-0.4-11.7,0.1l-1.7-1.2l-8.8,1.6
						c-5.3-0.7-7.5-1.2-2.3-2.1c-12.8,1.5-10.4,0.5-21.3,2l0.5-0.8c-3.9,0-10.1,1.1-12.5,0.4c-8.7-1.5-43.1-0.2-65.4-1.6
						c4.3,2.3-10.4-1-11.3,0.8c-1.3-0.6-4.4-0.9-0.8-1.3C99.2,6.4,93.5,5,85.6,6.5c-1.3-0.6,2.4-0.8,1.3-1.1
						c-0.9,0.1-3.6,0.5-4.8,0.1c-1.2-0.3,1.7-0.5,3.5-0.7C73.9,4.9,72.7,6.6,71.9,8.2C66,7.4,63,7.5,58.8,8.6
						c-2.1-0.5-5.5-1.1,1.8-1.3c-4.1-0.1-24.9-0.8-25.3,0.5c-1.3-0.3-5.7-0.1-6.8,0.1c-4.6-0.1-7.1-0.1-9.5-0.1c-1.3,0-2.6,0-4.2,0
						c-2,0-4.3,0-7.3,0.1L10.9,8C9.5,8.6,8.1,8.8,6.3,8.8c0,1.7-0.1,3.4-0.1,5.5c0,1.1-0.1,2.2-0.1,3.5c0,0.5,0,1.1,0,1.6
						c0,0.5,0,1.1,0,1.7l-0.2-0.2c-1.1,16.6,0.5,7.2-0.7,23.5l1-0.9c2.1,1.5-1.2,14.5-0.4,24l0.5-3.4C7,69.3,3.4,78.6,3.2,83.8
						C3,84.9,2.9,82,2.8,80.4C1.6,94.1,4,82.2,4.3,92.4c-0.7,1.9-1.7-2.4-1.9,4.4c-0.5,3.4,2.2,19.8,0.9,29.2c0.5-2.1,1-4.1,1.4,0.6
						c0.2,7.2-2,19.6-0.3,26.1c-0.1,0.9-0.3,1.3-0.4,1.3c0.4,5.5,0.7,18,1.6,21.3c-3.3,5.1,1.6,34.4-1.4,34.2l0.2,17L4.1,226
						c-0.2,10.9,0.5,14.7,1.3,18.5c-0.2,2.5-0.5,0.7-0.7,0.5c-0.6,15.9-0.5,17.5,1,30.8l-1,1.4c0.6,3.6-1.6,23-0.4,38.5
						c-0.1-0.2-0.3-0.5-0.4-1.7c1.2,17.5-2.7,42,0.9,48.4L5.6,374c0.3-15,1.6,2.2,2.2-3.9c0.2,5.9-1.1,15.2-1.3,8l0.2-1.1
						c-1.9-2.7-0.7,18.6-1.9,18.2c0,9.3-0.1,18.6-0.2,27.7c-0.1,4.6-0.2,9.1-0.2,13.7c0,2.4-0.1,4.8-0.1,7.3c0,3.4-0.1,6.8-0.1,10.2
						c6.5,0.1,13,0.2,19.4,0.2c5.1,0,10.2,0.1,15.3,0.1l-3.2-1.5l9.6,0.1c2.5,0.3,3.4,1.1-3.5,1.1c3.6,0.8,11.5-0.7,11.7-1
						c13.4,0.6-5.2,1.7-1.1,1.7l5.6-0.1l-1.3-0.2c4.5-0.6,4.9-1.2,13.2-1.2c5.2,0.3,2.7,0.9,4.7,1c0,0.1,0.7,0.2,3.2,0l12.1,0.1
						l-4.8-1.2c5.4-0.6,11.4,0.1,5.8-1.2c8.2,2,45.2,0.7,50.2,1.4c7.5-0.8,14.9-0.8,24.1-0.7c-2.3-0.2-3.7-1.5,4.3-1.4
						c-2.9,2.7,14.5,1.2,20.9,3.1c-5.7-1.3,22.6-0.3,13.6-2.1c6.6,0.2,0.4,1,5.4,1.6c15.8-1,34.7,0.7,54.2,0.3
						c0.3-0.4-3-0.9,1.2-1.4l10.3,1.8c3.8-0.2,3.5-2,10.6-0.8c-1-0.3-2.5-0.7,0.1-0.9c38.2,1.7,78-1.4,116.7,1.8
						c-5.2-0.7-1.8-0.7,2.3-0.8c-2.6-0.2,0.1-0.9-0.5-1.3l16.2,1.3c3-1.3,17.4-0.1,19.1-1.4l-5.1,0.2c6.8-1.5-9.6-3.3-8.6-5.2
						c-7.7,1.7-20.2-2.5-32.7-0.1c-2.8-0.4,2.4-0.6,0.9-1.1c-3.2,0.8-7,1-14.1,0.6l0.8-0.2c-20,0.2-28.6-0.6-51.1-1.1l1.7,0.9
						c-4.8-0.1-5.8-0.4-8.1-0.7c-5.5,1.4,13.6,0.1,8.5,1.7c-6.4-1.9-34.1,0-38.4-2.2c-7.4,0,2.2,1.1-5.2,1.1l-2-0.6l-1.9,0.8
						c-4.9-0.1-7.3-0.9-7.5-1.4c1.2,0.1,3.4-0.1,4.6-0.2c-6.3-0.7-17.8,0.2-20,0l7.1,0.4c-20.3,0.6-45-0.2-64.6,1l1.5,0.4
						c-15,0.8-12-0.5-28.4-0.1l0.6-0.1c-3.3,0.4-7.7,0.7-12.2,0.6c4.1-0.5-7.8-1-2.4-1.6c-16.2,0.9-8,0.7-18.7,2.4l-2.5-0.7
						c-3.7,0.7-4,1-12.2,1.2c6.7-0.6-5.2-1.1,2.3-2c-17.2-1.6-25.6,1.6-33.5-0.7c-7.9,2.1,14.9,1.1,10.5,1.6
						c3.7,0.7-6.5,1.5-11.9,1.3c-5.5,0-9.3-2.6-23.2-2.6c1.4,0,1.5-0.1,2.8-0.1c-5.2-0.5-10.1,0.7-16.5-0.1
						c-3.6,1.2-8.2-0.1-9.3,1.5l12.7-0.4c-7.2,0.4-13.9,2.3-25.8,1.4c0.9-0.3,4.4-0.7,6.9-1c-3.5-0.5-6.7,0.3-10.3-0.2
						c1-1.6,15.4-0.3,23.1-1.6c-3.7-0.7-14.6,1.1-10.7-0.6c-5.6,2.2-13.6-0.3-23,1.4l0.6-0.9c-1.5,0.1-4.6,0.6-7.3,0.6l4.9-1.2
						c-1.2,0.2-2.4,0.3-3.6,0.3c-0.6,0-1.2,0-1.8,0l-0.9,0l-0.2,0l-0.1,0l-0.2,0c-0.9-0.1-1.6-0.3-2.1-0.5c0.2-1,0.3-1.6,0.1-2.3
						c0,1.4-0.1,2.1-0.3,2.5c0.1,0.2-0.3,0.5-0.7,0.7c-0.4,0.3-0.7,0.6,0.3,0.8c-0.5,0.1-0.9,0.1-1.3,0.1c-0.1-1-0.1-1.9-0.1-2.7
						c0-0.4,0-0.7,0.1-1.1c0-0.2,0-0.3,0.1-0.5c0-0.3,0-0.5,0.1-0.8c0.2-1.9,0.5-3.3,0.9-4.7c0.7-2.9,1.4-6.3,1.2-16.4
						c0.1,2.8-0.6,10.7-1,6.2c0.2-4,0.6-9.3,1.1-11.7c-0.2-13.9-1,2.1-1.6-3.8c1.2-4.7-0.5-6.8-0.8-12.9l1,0
						c0.6-15.9-2-4.2-1.3-18.5l1.3,6l-0.3-7.5l1.1,1.5c-0.8-8.1-0.6-10.6-0.3-18.6c-0.7,1.8-1.8-1-1.8-8.1c0.6-4.8,0.9,2.7,0.8-7.3
						c0.6,2.3,1.4,4.7,0.5,9.1c0.3,0.4,0.6,2.2,0.9,2.7c0.7-5.2,0.1-13,0.1-16.6c0,1.4-0.1,3.1-0.2,3.9l-1.3-14.5
						c0.4-2.3,0.7-0.5,0.9,1.3c-0.1-2.9-0.5-5-0.6-9.3c0.8,1.1,1.6,0.8,2,6.9l-0.9-13.8c0.3-0.9,0.9-7.1,1.2-5.3
						c0.5-7.6-1.5-18.7-0.9-28.8c-0.2-0.5-0.3-1.6-0.4-3.7c0.2-9.5,1.1-17.9,0.1-29.2l1.4-6.4c-0.3-8.8-1.8,8.7-2.3-6
						c-0.4-10.4,1.2-3.9,1.6-7.5c-0.7-5.2-2.2-14.2-1-23.7C13.1,208,12.9,210.5,13,213.5z M12.4,104.6c0.2,2.1,0.8,6.3,0.3,7.9
						C11.5,110,12.1,108.2,12.4,104.6z M79.4,12.6c-1.6,0.3-4,0.2-6.7-0.2C74.7,12.3,76.9,12.3,79.4,12.6z M452.2,103.5
						c0-0.1,0-0.2,0-0.2C452.5,98.6,452.3,100.2,452.2,103.5z M451.7,113.3c0.1,1,0.3,0.9,0.4,0.5c-0.2-0.7-0.3-2.9-0.2-5.4
						C451.7,109.1,451.5,110.4,451.7,113.3z M75.7,453.9l-1.9-0.3C78.1,453.3,76.9,453.6,75.7,453.9z"/>
					<path class="st1" d="M60.7,13.9c-0.6-0.2-0.8-0.3-0.9-0.5C58.9,13.5,58.9,13.7,60.7,13.9z"/>
					<path class="st1" d="M13.5,281.2l0,0.3c0.1,0.2,0.1,0.3,0.2,0.3L13.5,281.2z"/>
					<path class="st1" d="M398.9,14.4c-2-0.1-3.1-0.3-3.9-0.5C394.9,14.2,395.8,14.4,398.9,14.4z"/>
					<path class="st1" d="M453.4,165.1l-0.3-6.3c0,3-0.2,4.1-0.3,5.6C453,164.3,453.4,163.1,453.4,165.1z"/>
					<path class="st1" d="M447.4,219.4c0.1,0.9,0,1.9,0.1,2.8l0.4-0.2C448,218.1,447.6,215.4,447.4,219.4z"/>
					<path class="st1" d="M450.2,170.9c-0.8,0.5-0.5,4.4-0.4,8.8c0-0.3,0-0.5,0-0.8C450.9,180.2,450.6,175.5,450.2,170.9z"/>
					<path class="st1" d="M449.8,180.7c0,1.4,0.1,2.7,0,4.1C450.3,185.2,449.9,183.1,449.8,180.7z"/>
					<path class="st1" d="M452.3,125.7c-0.2,2.1,1,1.3,0.7,2.5C454,130.5,451.7,114.3,452.3,125.7z"/>
					<polygon class="st1" points="447.5,174.4 448.5,172.8 447.7,170.4 					"/>
					<path class="st1" d="M448.2,139.8l-0.3,7c0.2-0.1,0.3,0.8,0.3,1.9C448.3,144.4,448.5,139.6,448.2,139.8z"/>
					<path class="st1" d="M448.3,148.7c0,2.2,0,4.4,0.2,5.6C448.5,153.1,448.4,150.5,448.3,148.7z"/>
					<polygon class="st1" points="447.2,164.8 447.4,162.8 447.5,157.8 					"/>
					<path class="st1" d="M448.4,64.5l-0.3-7.6c-0.3-0.8-0.6,1.3-0.4,4.2C448,62.8,448.1,65.6,448.4,64.5z"/>
					<path class="st1" d="M445.7,87.6c0.2-2.1,0.4-2.2,0.8-3.4l-1.2-0.2L445.7,87.6z"/>
					<path class="st1" d="M445.4,65.3c-0.3-0.8-1-11.1-0.9-1.4C444.8,64.7,445.1,72.3,445.4,65.3z"/>
					<polygon class="st1" points="387.1,11 389,11 388.7,9 					"/>
					<path class="st1" d="M285.5,15.9c9.1,0.5,2.2-1.3,10.3-0.6c2.1-0.5-6.7-0.5-4.5-0.9C285.9,14.9,283,14.6,285.5,15.9z"/>
					<path class="st1" d="M291.4,14.3c0.9-0.1,1.8-0.2,2.8-0.3C292.6,14.2,291.8,14.3,291.4,14.3z"/>
					<polygon class="st1" points="431.4,454.9 437.3,455.3 433.5,454.6 					"/>
					<path class="st1" d="M442.6,453.4l1.4,1.3l3.5-1.2C446.2,453.6,443.6,453.7,442.6,453.4z"/>
					<path class="st1" d="M15,88.4L14.7,88c-0.3,0.9-0.4,2.3-0.4,5L15,88.4z"/>
					<polygon class="st1" points="14,167.4 14,166.1 12.9,168.6 					"/>
					<path class="st1" d="M15.5,233.7c0-2.7-0.2-5.9-0.2-8.6C15.6,231,14.1,234.5,15.5,233.7z"/>
				</g>
			</g>
		</g>
	</g>
</g>
</svg>
